<svg width="340" height="141" fill="none" xmlns="http://www.w3.org/2000/svg"><path fill-rule="evenodd" clip-rule="evenodd" d="M18.886 48.12v-4.24c0-4.58-2.092-6.56-4.523-6.56-3.789 0-4.976 1.98-4.976 6.05v27.652c0 4.071 1.187 6.05 4.976 6.05 3.393 0 4.523-1.979 4.523-5.541v-6.56h9.387v6.277c0 7.69-4.524 13.967-13.91 13.967C4.523 85.215 0 78.938 0 71.248V43.145c0-7.69 4.524-13.967 14.363-13.967 9.386 0 13.91 6.785 13.91 14.984v4.015l-9.387-.056zm58.017-18.207V84.48h-8.2V41.844h-.113L60.108 84.48h-4.523l-8.482-42.636h-.113V84.48h-8.2V29.913h12.328l6.672 31.892h.113l6.673-31.892h12.327zm24.032 24.485h-3.62V37.66h3.62c6.107 0 8.029 1.866 8.029 8.369 0 6.502-1.922 8.368-8.029 8.368zM87.929 29.913v54.624h9.387V62.144h4.071c11.536 0 16.907-4.467 16.907-16.115 0-11.649-5.315-16.116-16.907-16.116H87.929zm45.18 34.324h7.577l-3.675-23.41h-.17l-3.732 23.41zm-2.997 20.243h-9.047l10.065-54.567h11.649l10.065 54.567h-9.048l-1.639-12.1h-10.405l-1.64 12.1zM.057 108.851c0 4.524 2.431 7.747 6.333 7.747 2.262 0 4.128-1.018 5.202-2.884l-1.866-1.244c-.792 1.244-1.753 1.866-3.336 1.866-2.601 0-4.015-2.092-4.015-5.485 0-3.336 1.414-5.485 4.015-5.485 1.526 0 2.318.566 3.11 1.81l1.979-1.244c-1.018-1.81-2.658-2.828-5.09-2.828-3.844 0-6.332 3.167-6.332 7.747zm20.582 2.714c-.622-.283-1.357-.509-2.601-.509-1.414 0-2.318.679-2.318 1.696 0 1.131.735 1.866 2.148 1.866 1.188 0 2.206-.735 2.715-1.413l.056-1.64zm0 4.806v-1.131c-.791.792-1.866 1.358-3.11 1.358-1.81 0-3.902-1.018-3.902-3.789 0-2.488 1.923-3.676 4.468-3.676 1.074 0 1.866.17 2.488.453v-.848c0-1.244-.735-1.923-2.15-1.923-1.187 0-2.035.226-2.94.679l-.848-1.64c1.075-.679 2.262-1.018 3.845-1.018 2.545 0 4.241 1.244 4.241 3.789v7.746H20.64zm12.214-6.389v6.389h2.206v-6.446c0-3.336-1.414-5.032-4.015-5.032-1.131 0-2.262.509-2.828 1.3v-1.074h-2.205v11.252h2.206v-6.615c0-1.81.848-2.884 2.318-2.884 1.47 0 2.318.848 2.318 3.11zm11.875 1.583c-.622-.283-1.357-.509-2.601-.509-1.414 0-2.319.679-2.319 1.696 0 1.131.736 1.866 2.15 1.866 1.187 0 2.205-.735 2.714-1.413l.056-1.64zm0 4.806v-1.131c-.792.792-1.866 1.358-3.11 1.358-1.81 0-3.902-1.018-3.902-3.789 0-2.488 1.923-3.676 4.467-3.676 1.075 0 1.867.17 2.489.453v-.848c0-1.244-.736-1.923-2.15-1.923-1.187 0-2.035.226-2.94.679l-.848-1.64c1.075-.679 2.262-1.018 3.845-1.018 2.488 0 4.241 1.244 4.241 3.789v7.746h-2.092zm9.5-9.499c1.13 0 2.148.791 2.657 1.47v4.75c-.565.678-1.47 1.413-2.544 1.413-1.64 0-2.545-1.244-2.545-4.071 0-2.375.848-3.562 2.431-3.562zm2.6 8.425v1.074h2.206v-15.663l-2.205 1.131v4.297c-.622-.678-1.697-1.3-2.828-1.3-2.375 0-4.467 1.866-4.467 5.711 0 4.298 1.923 6.05 4.354 6.05 1.188 0 2.149-.565 2.94-1.3zm5.542-10.235h2.205v11.309H62.37v-11.309zm1.131-1.47a1.4 1.4 0 01-1.414-1.414 1.4 1.4 0 011.414-1.413 1.4 1.4 0 011.414 1.413 1.4 1.4 0 01-1.414 1.414zm8.37 7.464c1.243 0 1.978.226 2.6.509l-.056 1.64c-.51.678-1.527 1.413-2.715 1.413-1.47 0-2.148-.735-2.148-1.866 0-1.017.904-1.696 2.318-1.696zm2.6 4.184v1.131h2.092v-7.746c0-2.545-1.752-3.789-4.24-3.789-1.584 0-2.771.339-3.846 1.018l.849 1.64c.848-.453 1.752-.679 2.94-.679 1.413 0 2.149.679 2.149 1.923v.848c-.622-.283-1.414-.453-2.488-.453-2.545 0-4.468 1.188-4.468 3.676 0 2.771 2.093 3.789 3.902 3.789 1.244 0 2.319-.566 3.11-1.358zm12.158 1.131v-6.389c0-2.262-.849-3.11-2.319-3.11s-2.318 1.074-2.318 2.884v6.615h-2.205v-11.252h2.205v1.074c.565-.791 1.696-1.3 2.827-1.3 2.601 0 4.015 1.696 4.015 5.032v6.446h-2.205zm22.788-7.973v7.973h2.205V101.33h-2.431l-3.28 8.03a46.488 46.488 0 00-1.018 2.601c-.121-.442-.413-1.142-.693-1.814-.114-.273-.227-.542-.325-.787l-3.393-8.03h-2.318v15.041h2.149v-7.973c0-.529-.02-1.194-.036-1.745v-.003c-.011-.39-.021-.722-.021-.909.098.259.288.724.497 1.233l.001.002.001.003v.001c.155.376.319.776.463 1.136l3.618 8.482 3.676-8.482c.144-.36.308-.76.462-1.137h.001c.209-.511.401-.978.498-1.238-.056.452-.056 1.753-.056 2.657zm10.065-1.583c-1.471 0-2.375 1.018-2.602 2.827h5.259c-.113-1.526-.848-2.827-2.657-2.827zm4.806 4.693h-7.464c.226 2.149 1.47 3.11 2.827 3.11.962 0 1.697-.339 2.432-.904l1.3 1.413c-1.018.962-2.148 1.471-3.901 1.471-2.658 0-4.863-2.149-4.863-5.881 0-3.845 2.035-5.881 4.919-5.881 3.223 0 4.75 2.601 4.75 5.655v1.017zm6.955-4.636c1.131 0 2.149.791 2.658 1.47v4.75c-.566.678-1.47 1.413-2.545 1.413-1.64 0-2.544-1.244-2.544-4.071 0-2.375.848-3.562 2.431-3.562zm2.658 8.425v1.074h2.205v-15.663l-2.205 1.131v4.297c-.622-.678-1.696-1.3-2.827-1.3-2.375 0-4.468 1.866-4.468 5.711 0 4.298 1.923 6.05 4.354 6.05 1.188 0 2.149-.565 2.941-1.3zm5.541-10.235h2.206v11.309h-2.206v-11.309zm1.131-1.47a1.4 1.4 0 01-1.413-1.414 1.4 1.4 0 011.413-1.413 1.4 1.4 0 011.414 1.413 1.4 1.4 0 01-1.414 1.414zm8.313 7.464c1.244 0 1.979.226 2.601.509l-.057 1.64c-.509.678-1.526 1.413-2.714 1.413-1.414 0-2.149-.735-2.149-1.866 0-1.017.905-1.696 2.319-1.696zm2.601 4.184v1.131h2.092v-7.746c0-2.545-1.753-3.789-4.241-3.789-1.583 0-2.771.339-3.845 1.018l.848 1.64c.905-.453 1.753-.679 2.941-.679 1.413 0 2.148.679 2.148 1.923v.848c-.622-.283-1.413-.453-2.488-.453-2.544 0-4.467 1.188-4.467 3.676 0 2.771 2.092 3.789 3.902 3.789 1.244 0 2.318-.566 3.11-1.358zM7.011 127.285H2.997v5.203H7.01c1.697 0 2.602-.962 2.602-2.601-.057-1.64-1.075-2.602-2.602-2.602zm-.113 7.295H2.94v5.598H.735v-15.041H7.01c2.771 0 4.863 1.583 4.863 4.693 0 3.167-2.092 4.75-4.976 4.75zm11.988-3.675c.735 0 1.244.113 1.697.395l.622-2.148c-.453-.283-1.018-.453-1.923-.453-1.13 0-2.092.566-2.601 1.301v-1.075h-2.205v11.31h2.205v-6.447c0-1.922.791-2.883 2.205-2.883zm8.425-.114c-1.696 0-2.714 1.471-2.714 3.732 0 2.488 1.131 3.846 2.828 3.846 1.696 0 2.77-1.697 2.77-3.789 0-2.318-1.13-3.789-2.884-3.789zm0 9.67c-2.827 0-4.976-2.319-4.976-5.881 0-3.675 2.206-5.881 5.033-5.881 2.884 0 5.033 2.319 5.033 5.824 0 3.732-2.206 5.938-5.09 5.938zm11.988-9.726c1.131 0 2.149.791 2.658 1.47v4.806c-.566.736-1.47 1.414-2.545 1.414-1.64 0-2.544-1.244-2.544-4.071 0-2.432.848-3.619 2.431-3.619zm2.601 8.425v1.075h2.206v-15.664l-2.206 1.131V130c-.622-.679-1.696-1.301-2.827-1.301-2.375 0-4.467 1.866-4.467 5.711 0 4.298 1.922 6.051 4.354 6.051 1.188 0 2.149-.566 2.94-1.301zm12.271 1.074v-1.074c-.565.848-1.696 1.3-2.827 1.3-2.601 0-4.015-1.696-4.015-5.032v-6.447h2.205v6.39c0 2.262.849 3.11 2.319 3.11s2.318-1.074 2.318-2.884v-6.616h2.205v11.253h-2.205zm9.783-9.386c1.018 0 1.866.396 2.77 1.357l1.358-1.583c-1.075-1.244-2.375-1.923-4.015-1.923-2.77 0-4.976 2.206-4.976 5.938 0 3.505 2.092 5.824 4.863 5.824 2.035 0 3.11-.961 4.015-2.092l-1.414-1.414c-.848.961-1.47 1.414-2.545 1.414-1.753 0-2.714-1.584-2.714-3.789 0-2.318 1.018-3.732 2.658-3.732zm10.8-.17c-1.47 0-2.375 1.018-2.601 2.828h5.259c-.113-1.527-.849-2.828-2.658-2.828zm4.806 4.694h-7.464c.227 2.148 1.47 3.11 2.828 3.11.961 0 1.696-.34 2.431-.905l1.3 1.414c-1.017.961-2.148 1.47-3.9 1.47-2.659 0-4.864-2.149-4.864-5.881 0-3.845 2.036-5.881 4.92-5.881 3.223 0 4.75 2.601 4.75 5.655v1.018zm7.238-4.467c.735 0 1.244.113 1.697.395l.622-2.148c-.453-.283-1.018-.453-1.923-.453-1.13 0-2.092.566-2.601 1.301v-1.075h-2.205v11.31h2.205v-6.447c0-1.922.792-2.883 2.205-2.883zm7.804 9.556c-1.527 0-3.167-.622-4.298-1.414l1.018-1.696c1.074.735 2.262 1.131 3.28 1.131 1.413 0 2.035-.453 2.035-1.244 0-.849-.96-1.301-2.6-1.923-2.432-.961-3.28-1.753-3.28-3.562 0-2.036 1.583-3.054 3.845-3.054a6.78 6.78 0 013.845 1.244l-.962 1.697c-.904-.679-1.865-.962-2.94-.962-1.074 0-1.527.453-1.527 1.018 0 .566.396.961 2.093 1.64 2.488.961 3.788 1.64 3.788 3.789-.113 2.488-2.092 3.336-4.297 3.336zm19.422-10.899c.193.571.392 1.161.538 1.625l1.244 3.506h-4.637l1.188-3.449c.145-.484.331-1.08.51-1.654l.001-.002c.24-.768.466-1.494.563-1.85.097.353.339 1.072.593 1.824zm2.404 7.11l1.244 3.563h2.432l-5.485-15.042h-2.375l-5.429 15.042h2.375l1.244-3.563h5.994zm9.953 3.789c-1.527 0-3.167-.622-4.298-1.414l1.018-1.696c1.074.735 2.205 1.131 3.28 1.131 1.413 0 2.092-.453 2.092-1.244 0-.849-.962-1.301-2.601-1.923-2.432-.961-3.337-1.753-3.337-3.562 0-2.036 1.584-3.054 3.846-3.054a6.78 6.78 0 013.845 1.244l-.962 1.697c-.904-.679-1.866-.962-2.94-.962-1.074 0-1.527.453-1.527 1.018 0 .566.396.961 2.092 1.64 2.488.961 3.789 1.64 3.789 3.789-.057 2.488-2.092 3.336-4.297 3.336zm6.22-1.414c1.131.792 2.77 1.414 4.297 1.414 2.205 0 4.241-.848 4.354-3.336 0-2.149-1.3-2.828-3.788-3.789-1.697-.679-2.093-1.074-2.093-1.64 0-.565.453-1.018 1.527-1.018 1.074 0 2.036.283 2.94.962l.962-1.697a6.78 6.78 0 00-3.845-1.244c-2.262 0-3.846 1.018-3.846 3.054 0 1.809.849 2.601 3.28 3.562 1.583.622 2.601 1.074 2.601 1.923 0 .791-.678 1.244-2.092 1.244-1.018 0-2.205-.396-3.28-1.131l-1.017 1.696zm15.55-8.256c-1.697 0-2.714 1.471-2.714 3.732 0 2.488 1.131 3.846 2.827 3.846s2.771-1.697 2.771-3.789c0-2.318-1.075-3.789-2.884-3.789zm0 9.67c-2.827 0-4.976-2.319-4.976-5.881 0-3.675 2.205-5.881 5.032-5.881 2.884 0 5.033 2.319 5.033 5.824.057 3.732-2.149 5.938-5.089 5.938zm12.157-9.613c1.018 0 1.866.396 2.771 1.357l1.357-1.583c-1.074-1.244-2.375-1.923-4.015-1.923-2.77 0-4.976 2.206-4.976 5.938 0 3.505 2.093 5.824 4.863 5.824 2.036 0 3.11-.961 4.015-2.092l-1.414-1.414c-.848.961-1.47 1.414-2.544 1.414-1.753 0-2.714-1.584-2.714-3.789 0-2.318 1.017-3.732 2.657-3.732zm7.012-1.923h2.205v11.253h-2.205v-11.253zm1.131-1.47a1.4 1.4 0 01-1.414-1.413 1.4 1.4 0 011.414-1.414 1.4 1.4 0 011.413 1.414c0 .791-.678 1.413-1.413 1.413zm8.312 7.464c1.244 0 1.979.226 2.601.509l-.056 1.64c-.509.679-1.527 1.414-2.715 1.414-1.47 0-2.148-.735-2.148-1.866 0-1.018.904-1.697 2.318-1.697zm2.601 4.185v1.131h2.092v-7.747c0-2.545-1.752-3.789-4.241-3.789-1.583 0-2.77.339-3.845 1.018l.849 1.696c.848-.508 1.752-.735 2.94-.735 1.414 0 2.149.679 2.149 1.923v.848c-.622-.283-1.414-.452-2.488-.452-2.545 0-4.467 1.187-4.467 3.675 0 2.771 2.092 3.789 3.901 3.789 1.244 0 2.319-.566 3.11-1.357zm10.744.848a4.827 4.827 0 01-2.149.509c-1.583 0-2.544-.962-2.544-2.997v-6.503h-1.64v-2.036h1.583v-3.223l2.149-1.187v4.41h2.771v2.036h-2.771v6.107c0 1.074.339 1.357 1.187 1.357.566 0 1.244-.226 1.64-.452l-.226 1.979zm5.598-11.027h-2.205v11.253h2.205v-11.253zm-2.488-2.883a1.4 1.4 0 001.413 1.413c.736 0 1.414-.622 1.414-1.413a1.4 1.4 0 00-1.414-1.414 1.4 1.4 0 00-1.413 1.414zm10.235 4.749c-1.697 0-2.715 1.471-2.715 3.732 0 2.488 1.131 3.846 2.828 3.846 1.696 0 2.771-1.697 2.771-3.789 0-2.318-1.075-3.789-2.884-3.789zm.056 9.67c-2.827 0-4.976-2.319-4.976-5.881 0-3.675 2.205-5.881 5.033-5.881 2.884 0 5.032 2.319 5.032 5.824 0 3.732-2.205 5.938-5.089 5.938zm14.646-6.617v6.39h2.205v-6.447c0-3.336-1.414-5.032-4.015-5.032-1.131 0-2.262.509-2.827 1.3v-1.074h-2.206v11.253h2.206v-6.616c0-1.81.848-2.884 2.318-2.884 1.47 0 2.319.848 2.319 3.11z" fill="#fff"/><path opacity=".3" d="M326.893 36.812c-2.036 0-4.072 1.074-5.881 1.809-14.137 5.541-27.991 11.422-42.07 17.303-1.98.848-4.298 2.319-6.221 2.658l-1.13.056c-1.753-.113-2.884-.339-2.884-.339l.565.113.961.283-62.766 28.33h-.056c-.453-.453-1.075-.736-1.81-.905v.226c.34.396 1.471.509.905 1.13-3.11 1.132-5.655 2.376-8.991 3.846-2.205.961-7.916 2.262-7.181 5.598.339 1.64 3.393 1.922 6.446 1.922 2.036 0 4.128-.113 5.485-.113 9.33 0 19.226-.226 28.386-.226 4.58 0 8.934.057 13.006.226 1.3 9.104 1.413 20.64 2.035 30.592.227 3.223-.282 7.068 2.036 8.991l.905.113c2.544 0 3.562-2.488 4.75-3.902 8.369-10.404 16.681-20.696 25.163-31.496 1.244-1.64 3.11-4.467 4.467-4.976.961-.34 2.431-.453 4.071-.453 2.375 0 5.146.227 7.408.227 11.761 0 24.993-.227 35.058-.679h.622c.566 0 1.188 0 1.866.057.679 0 1.414.056 2.092.056 2.432 0 4.807-.282 5.09-1.64.565-2.714-5.938-4.75-8.539-6.05-6.672-3.393-13.175-6.842-19.565-10.122-3.223-1.64-6.672-3.166-9.217-5.598 6.616-9.273 13.797-17.925 20.47-26.746 2.262-2.997 4.919-6.107 6.05-9.896l-1.526-.395z" fill="#E6E7E8"/><path d="M276.284 71.078l.17-.678-.17.678zm-24.202 8.935h.17-.17zm-67.289-11.027c-1.131.622-2.206 1.244-3.337 1.866 1.131-.622 2.206-1.187 3.337-1.866zm1.979-1.13l-1.697 1.017 1.697-1.018zm2.092-1.301l-1.47.904 1.47-.904zm-7.577 4.41c-.622.34-1.188.679-1.81 1.018.622-.34 1.188-.678 1.81-1.018zm9.669-5.767l-1.414.96 1.414-.96zm1.979-1.527l-1.357 1.018 1.357-1.018zm-4.523-.057c1.752-.678 3.505-1.413 5.428-1.583-1.923.17-3.676.961-5.428 1.583zM163.249 34.72l-.114.057.114-.057zm.056-.113l-.056.113.056-.113zm4.241 4.976l-.226-.17.226.17zm.339.17l-.226-.113.226.113zm-.622-.34l-.282-.226.282.227zm1.075.623c-.792-.34-1.471-.735-2.206-1.188.735.396 1.414.848 2.206 1.188zm.735.056h.113-.113zm.339 0h-.17.17zm8.991-2.601l.17-.17-.17.17zm-.792.792l.283-.226-.283.226zm-.735.622l.283-.227-.283.227zm-.961.622l.113-.057-.113.057zm-1.131.509l.283-.113-.283.113zm-1.074.339l.339-.057-.339.057zm-4.241.056l.848.17-.848-.17zm-.905-.282l.792.282-.792-.282zm4.015.395l-1.075.057 1.075-.056zm-1.244.057l-.962-.056.962.056zm11.196-14.476l.791-.056-.848.396-.283 1.3c-.226.961-.395 1.98-.678 2.94-.452 1.697-1.018 3.45-1.923 4.977 1.64-2.94 2.319-6.334 2.941-9.557zm4.41.283h-.056.056zm2.432-.509l-.396.17.396-.17zm.452-.34l-.339.227.339-.226zm-1.018.566l-.622.17.622-.17zm2.206-2.035l-.283.452.283-.452zm.282-.566l-.226.453.226-.453zm-.565 1.075l-.339.452.339-.453zm1.47-3.563l-.509 1.583.509-1.583zm-2.205 4.41l.339-.339-.339.34zm-5.429 39.357h-.113.113zm1.471-.34l-.227.057.227-.056zm1.47-.452l-.339.113.339-.113zm-.057-37.603h.17-.17zm36.586-5.824c-.509 1.3-1.527 2.149-2.206 3.28.679-1.188 1.697-1.98 2.206-3.28zm1.866-1.131l-.566.396.566-.396zm1.13-.848l-.565.452.565-.452zm4.468-4.185l-.622.396.622-.396zm44.614 7.52v-.112.113zm0 .962l.057.17-.057-.17zm.34.792l-.057-.113.057.113zm.169.226l-.113-.113.113.113zm-.339-.566l-.056-.113.056.114zm1.301 1.301l.169.113-.169-.113zm-.283-.17l.17.113-.17-.113zm-.283-.17l.113.114-.113-.113zm.848.51l1.188.452-1.188-.452zm2.149 14.306l.452-.226-.452.226zm-.792.396l.509-.227-.509.227zm-.848.395l.509-.226-.509.227zm-.904.34l.622-.226-.622.226zm-2.093.791c.622-.226 1.244-.452 1.866-.735-.622.283-1.244.51-1.866.735zm-.848.34l.679-.283-.679.283zm-.791.339l.565-.226-.565.226zm7.52-3.28l-.452.283.452-.283zm.735-.565l-.452.34.452-.34zm.848-.735l-.622.565.622-.565zm-10.178 5.089l-.509.283.509-.283zm.792-.396l-.566.226.566-.226zm-9.556 4.184l.678-.17-.678.17zm-13.685 33.985h-.509.509zm-2.205 0h-.622.622zm-2.205.113l-.679.056.679-.056zm30.308-57.96v.17-.17zm-.056.396v.17-.17zm.735 1.527l.113.113-.113-.113zm-6.672 7.464l-.114.056.114-.056zm-.566.395l-.17.114.17-.113zm-40.6-15.04l.17-.114-.17.113zm-1.301 1.187l.453-.396-.453.396zm32.628 59.203l-.227-.339.227.34zm43.144-13.91l-1.074-.34-1.47-.112c-.566.056-.905.226-1.471.226h-1.3l-.792-.226c-1.3-.51-2.827-.226-4.241-.226-.791 0-1.47-.057-2.262-.17l-2.148.17c-1.244-.057-2.488-.057-3.732-.227-.849-.113-1.584-.508-2.432-.508l-.848.17-1.188-.114c-.678 0-1.47-.622-2.148-.848-2.149-.679-4.411-.848-6.56-1.527-1.017-.34-1.866-.848-2.883-1.13-.905-.227-1.244-.736-1.697-1.528-.452-.848-1.018-1.017-1.922-1.187-1.301-.226-2.602-.452-3.902-.792-1.074-.282-2.205-.622-3.223-1.017a13.43 13.43 0 01-1.583-.736c-.453-.226-1.131-.395-.962-1.017.17-.679.905-.849 1.244-1.414l.962-.792 1.244-.791c.848-.566.961-1.47 1.752-2.093.736-.622 1.81-.735 2.771-1.017l-1.413.452c1.13 0 2.261-.283 3.392-.622a47.962 47.962 0 001.64-.679l1.301-.678c1.3-.34 2.318-1.414 3.506-2.036l-1.244.792c4.014-2.149 10.517-4.185 14.023-6.503-.622-.452-2.658-.113-3.449-.113l-.509-.283-.792.057c-.509.056-.905-.283-1.47-.283-.735 0-1.47.113-2.205.057-.792 0-1.64.056-2.432-.057-.735-.113-1.244-.452-2.036-.396-1.13.057-2.94.34-3.336-1.074-.339-1.244.905-2.488 1.979-2.884.905-.34 2.941-.622 3.337-1.64.622-.509 1.357-.848 2.092-1.13.735-.284 1.583-.905 2.431-.905l1.357-1.188 1.866-1.244-2.148-.17.056-.113c-1.074-.282-2.601-1.3-3.053-2.375-.735-1.583 1.074-2.997 2.035-3.958 1.131-1.13 2.884-1.3 3.732-2.714.509-.792.17-1.414.227-2.262 0-.735.452-1.13 1.017-1.47.679-.453.792-.848 1.018-1.64.34-.905.848-1.696 1.301-2.488 1.696-.735 3.223-1.866 4.297-3.336l.735-1.188.792-.735c.452-.565.961-.678 1.47-1.13.509-.397 2.545-1.697 1.075-2.206l-1.357.792-1.358.848-1.413.735a29.14 29.14 0 00-2.036.735c-2.318.905-4.524 2.036-6.842 2.94a36.446 36.446 0 01-3.506 1.188c-1.413.396-2.714.565-4.015 1.3-.961.566-2.318.622-3.449.736-1.3.17-2.488.452-3.732.904-1.074.396-1.809 1.188-2.884 1.64l-1.357.679c-.565.056-.961.339-1.47.565-1.188.453-2.827.113-4.071.113-.622 0-1.527.17-2.036-.056l-1.527-.792-1.413-.17-.736.396-.791.17c-1.075.452-2.262 1.187-3.223 1.866-1.018.735-1.979 1.527-2.771 2.488l-1.188.905-.565.452-.905.17c-1.018.339-1.809.509-2.94.509-.735 0-1.583-1.075-1.583-1.753 0-1.131-.566-2.093-.792-3.167-.17-.905.226-2.431.961-3.562l-3.11 1.866-1.47.735-.848.961-1.64 1.244a25.046 25.046 0 00-2.997 2.997l-1.527 1.018-1.3 1.187c-.566.283-1.131 1.3-1.527 1.81-.735.904-1.357 1.922-2.488 2.318l-.735.226-1.018.227c-.679.339-1.244.848-1.866 1.244-1.244.848-3.28 1.47-4.693.622-1.414-.905-1.64-2.828-1.64-4.354l.452-2.036-1.583.848c-.961-.056-1.583 0-2.318-.678-1.244-1.075-1.64-2.771-2.375-4.241l-.566-.962-.169-1.13c0-.849.282-1.923-.114-2.715l-.113-1.64-.056-1.357c.113-.622.622-1.753-.17-2.149-.905 1.697-1.414 4.128-2.94 5.372-1.64 1.357-2.206 3.167-3.336 4.92-.453.678-1.018 1.244-1.866 1.47-.736-.056-2.206-1.13-2.206-1.13-.169.282-.961 2.43-.905 3.166.057 1.13-.226 2.205-.678 3.223l.226-.566c-1.187 2.771-4.071 3.337-6.729 3.167l-1.244-.792-1.074-1.018-.34 2.432c-.395 1.018-.678 2.149-.904 3.223-.396 1.923-.679 4.015-1.584 5.768-1.017 1.866-2.431 2.94-4.467 3.675l-1.47.51h-3.619c-.678 0-1.47.112-2.149-.057.679.226-.282-.396-.452-.566l-.848-.848c-.679-.679-2.658-3.336-3.393-4.467l-.17.282-.056 4.242c0 1.017.509 2.035.792 2.996.169.622.339 1.244.565 1.867.226.565.509 1.017.565 1.64.057 1.017-.622 1.809-.678 2.827-.17 1.47 1.018 2.94 1.809 4.07.905 1.301 2.036 2.602 2.488 4.129.17.565.227 1.187.057 1.753l-.509.735c-.283.282-2.036.396-2.771.396-.961 0 2.941 2.205 3.676 2.6 1.131.566 2.431.905 3.675 1.414a101.83 101.83 0 003.789 1.47c1.131.396 2.149 1.018 3.336.905 1.244-.113 2.488.34 3.732.283.566 0 1.188-.056 1.697-.34.735-.452 1.639-.621 2.488-.96 1.922-.68 3.845-1.47 5.88-1.923l.17.396-1.301.791c-.735.51-1.47 1.018-2.035 1.753l-1.47 1.018c-2.488 1.47-2.375 1.47-4.863 2.94-2.545 1.47-5.09 2.94-7.464 4.637.735-.509 1.47-.904 2.205-1.357-1.075.622-2.036 1.244-3.11 1.81-1.018.509-1.81 1.3-2.828 1.81l-1.583.734c-.565.283-1.131.566-1.64.905-.565.283-1.074.622-1.583.961l-1.301.679c-1.017.735-3.505.905-3.901 2.375l.509 3.901c.622-.226 1.187-.508 1.809-.791 1.244-.566 2.488-1.244 3.732-1.923 4.637-2.6 8.369-5.71 13.402-8.934 2.431-1.583 4.467-2.997 6.898-4.467 1.188-.735 1.414-1.584 2.601-2.262.283-.17 4.524-3.506 4.524-2.714l-.961 1.187c-.566.51-2.432 2.997-2.658 3.337-.678.848-1.244 1.696-1.244 2.827l-.226.509-.226.452-.283 1.131c-.17.848-.339 1.81 0 2.658l.735.678.622.848a37.14 37.14 0 011.244 2.602c.792 1.64 1.64 3.449 3.054 4.636 1.074.848 4.863 5.372 4.523 4.298-.678-2.319-.678-3.223.679-4.241.848-.679 1.979-.057 2.714.735l1.583.848c.566.396 1.188.509 1.81.848.735.453 1.753.735 2.601 1.131 1.074.566 2.036 1.188 3.11 1.753 1.018.566 2.149 1.075 3.336 1.244 1.244.226 2.488-.056 3.732.057 2.601.226 4.976 1.753 7.577 1.81.736.056 1.358.734 2.149 1.017 1.018.34 2.092.622 3.167.905l1.244.282.452-.17.566.34 1.639.057h.736l2.261.395c-2.318-1.526-5.654-4.184-7.238-6.22-2.035-2.488-.735-5.937 1.753-7.577 3.393-2.205 7.973-2.544 11.932-2.657 2.488-.057 4.919.17 7.407.339 1.188.113 2.375.17 3.563.17.565 0 1.187-.057 1.752-.114l.849-.113.622-.17 2.77-.452c-.904-1.357-3.562-3.28-2.997-4.976.679-1.866 3.167-2.488 4.92-2.488 1.301 0 2.545.057 3.845.057 1.074 0 2.092-.34 3.11-.226l.961-.283.453-.226h1.47c2.658-.057 2.092-.51 1.244-1.98l-.283.566c.848-2.431 4.241-2.431 6.333-2.714-1.922.226-4.806.226-6.05 2.092 1.357-1.47 3.845-1.527 5.711-1.923 1.075-.226 2.205-.339 3.28-.678 1.187-.34 2.262-.848 3.506-1.131 2.431-.566 4.919-.961 7.407-1.244 2.658-.34 5.429-.452 8.086-.848-.056-.962-.961-.792-1.357-.792z" fill="#8DC73F"/></svg>