<svg xmlns="http://www.w3.org/2000/svg" xml:space="preserve" stroke-linecap="round" stroke-linejoin="round" stroke-miterlimit="10" clip-rule="evenodd" viewBox="0 0 792 612"><path fill="#231f20" d="M411.61 257.96h-25.36v19.78h28.37v10.09h-40.67V220.5h39.18v10.09h-26.88v17.38h25.36v9.99ZM460.28 286.32a35.2 35.2 0 0 1-13.77 2.6c-15.2 0-25.09-9.78-25.09-24.87 0-14.58 10-25.97 27.07-25.97 4.08-.03 8.13.75 11.9 2.3l-2.21 9.18a21.66 21.66 0 0 0-9.29-1.9c-9.4 0-14.98 6.9-14.87 15.8 0 10 6.48 15.68 14.87 15.68 3.33.05 6.63-.6 9.69-1.9l1.7 9.08ZM514.72 263.06c0 17.87-12.59 25.87-24.99 25.87-13.78 0-24.38-9.5-24.38-25.08 0-15.97 10.5-25.77 25.19-25.77 14.48 0 24.18 10.17 24.18 24.98Zm-36.7.49c0 9.4 4.62 16.49 12.11 16.49 6.99 0 11.88-6.9 11.88-16.69 0-7.6-3.39-16.28-11.78-16.28-8.7-.04-12.2 8.4-12.2 16.48ZM524.8 204.94h12.38v70.94h-12.37v-70.94ZM559.15 266.95c.32 8.8 7.22 12.58 15 12.58a36.3 36.3 0 0 0 13.46-2.2l1.82 8.56a45.91 45.91 0 0 1-17 3.1c-15.77 0-25.06-9.79-25.06-24.67 0-13.45 8.18-26.17 23.77-26.17 15.9 0 20.98 12.97 20.98 23.67.01 1.74-.12 3.48-.41 5.19l-32.56-.06Zm21.4-8.56c.09-4.5-1.9-11.9-10.1-11.9-7.6 0-10.79 6.9-11.3 11.9h21.4ZM382.3 316.36c0-5.6-.1-10.29-.4-14.5h10.8l.6 7.34h.28c3.3-5.35 9.2-8.55 15.49-8.36 8.5 0 17.28 5.5 17.28 20.88v28.86h-12.3v-27.53c0-6.98-2.6-12.3-9.26-12.3-4.41.1-8.27 3-9.6 7.2-.38 1.3-.55 2.65-.5 4v28.57H382.3v-34.16ZM477.2 338.85c-.06 3.9.17 7.8.7 11.67h-11.09l-.8-5.38h-.29a18.13 18.13 0 0 1-14.4 6.48c-9.78 0-15.27-7.08-15.27-14.5 0-12.22 10.9-18.46 28.85-18.34v-.82c0-3.19-1.3-8.49-9.88-8.49a25.7 25.7 0 0 0-13.09 3.6l-2.38-8a35.08 35.08 0 0 1 17.56-4.23c15.6 0 20.08 9.9 20.08 20.47v17.54Zm-11.98-12.1c-8.68-.2-16.99 1.7-16.99 9.08 0 4.8 3.1 7 7 7a9.96 9.96 0 0 0 9.59-6.7c.27-.86.41-1.77.4-2.68v-6.7ZM503.66 289.38v12.49h11.66v9.2h-11.7v21.46c0 5.9 1.6 9 6.3 9 1.62.05 3.24-.15 4.8-.59l.2 9.38a26.56 26.56 0 0 1-8.9 1.3 14.28 14.28 0 0 1-10.6-4.1c-2.58-2.8-3.78-7.19-3.78-13.58v-22.88h-6.9v-9.2h6.98v-8.97l11.94-3.51ZM537.75 288.3c0 3.66-2.7 6.58-6.99 6.58a6.46 6.46 0 0 1-6.8-6.59 6.9 6.9 0 0 1 13.79 0Zm-13.09 62.22v-48.65h12.38v48.65h-12.38ZM596.48 325.75c0 17.88-12.59 25.87-24.98 25.87-13.78 0-24.37-9.48-24.37-25.07-.01-15.93 10.5-25.71 25.17-25.71 14.68 0 24.18 10.13 24.18 24.91Zm-36.7.5c0 9.38 4.62 16.48 12.12 16.48 6.98 0 11.86-6.9 11.86-16.68 0-7.6-3.39-16.28-11.78-16.28-8.67 0-12.17 8.39-12.17 16.49h-.02ZM605.7 316.36c0-5.6-.11-10.29-.42-14.5h10.82l.58 7.34h.3a17.53 17.53 0 0 1 15.48-8.36c8.49 0 17.28 5.5 17.28 20.88v28.86h-12.23v-27.53c0-6.98-2.6-12.3-9.3-12.3a10.3 10.3 0 0 0-9.58 7.2c-.38 1.3-.55 2.65-.5 4v28.57H605.7v-34.16ZM700.58 338.85c-.05 3.9.18 7.8.71 11.67h-11.08l-.8-5.38h-.29a18.15 18.15 0 0 1-14.4 6.48c-9.77 0-15.3-7.08-15.3-14.5 0-12.22 10.9-18.46 28.9-18.34v-.82c0-3.19-1.3-8.49-9.89-8.49-4.6.01-9.12 1.26-13.08 3.61l-2.45-8a35.15 35.15 0 0 1 17.61-4.24c15.59 0 20.07 9.9 20.07 20.47v17.54Zm-11.98-12.1c-8.69-.2-16.98 1.7-16.98 9.08 0 4.8 3.1 7 7 7a9.93 9.93 0 0 0 9.58-6.7c.27-.86.4-1.77.4-2.68v-6.7ZM712.7 279.58h12.38v70.94H712.7v-70.94ZM747.07 329.64c.3 8.8 7.18 12.6 14.96 12.6 4.59.12 9.15-.63 13.45-2.21l1.81 8.5a45.53 45.53 0 0 1-16.97 3.1c-15.8 0-25.09-9.8-25.09-24.68 0-13.45 8.19-26.17 23.8-26.17 15.9 0 20.97 12.99 20.97 23.66.02 1.75-.12 3.49-.42 5.2h-32.5Zm21.37-8.56c.1-4.51-1.9-11.9-10.1-11.9-7.57 0-10.79 6.9-11.27 11.9h21.37ZM369.06 341.32v57.24c0 5 .2 10.38.4 13.7h-11.01l-.5-7.7h-.2c-2.91 5.41-8.8 8.79-15.9 8.79-11.57 0-20.8-9.9-20.8-24.87-.09-16.3 10.1-25.97 21.78-25.97 6.7 0 11.48 2.78 13.69 6.4h.2v-27.59h12.34Zm-12.29 42.56c0-1.07-.1-2.13-.3-3.19-1-5.06-5.44-8.7-10.6-8.7-7.88 0-12.23 7-12.23 16.09 0 8.9 4.4 15.37 12.23 15.37 5.15 0 9.58-3.63 10.6-8.67.3-1.18.44-2.39.41-3.6l-.1-7.3ZM390.93 391.35c.3 8.79 7.2 12.58 15 12.58 4.58.12 9.14-.63 13.45-2.19l1.79 8.49a45.48 45.48 0 0 1-16.93 3.13c-15.8 0-25.1-9.78-25.1-24.68 0-13.45 8.2-26.16 23.79-26.16 15.9 0 20.96 12.99 20.96 23.68.02 1.73-.11 3.47-.4 5.18l-32.56-.03Zm19.81-8.57c.12-4.5-1.9-11.88-10.09-11.88-7.58 0-10.78 6.9-11.3 11.88h21.4ZM490.23 410.75a35.34 35.34 0 0 1-13.8 2.61c-15.19 0-25.07-9.78-25.07-24.86 0-14.58 10-25.98 27.07-25.98 4.08-.03 8.12.75 11.9 2.3l-2.19 9.2a21.65 21.65 0 0 0-9.3-1.91c-9.39 0-15 6.9-14.9 15.79 0 9.98 6.51 15.68 14.9 15.68 3.33.04 6.63-.6 9.7-1.9l1.7 9.07ZM512.4 425.6c0 3.66-2.7 6.58-6.98 6.58a6.47 6.47 0 0 1-6.81-6.59 6.9 6.9 0 0 1 13.8 0Zm-13.08-13.28v-48.71h12.33v48.65l-12.33.06ZM524.9 379.29c0-6.58-.12-11.3-.41-15.68h10.69l.4 9.28h.4c2.44-6.9 8.08-10.38 13.29-10.38.97-.02 1.94.09 2.88.3v11.58a16.6 16.6 0 0 0-3.6-.39c-5.86 0-9.89 3.8-11 9.27a21.74 21.74 0 0 0-.4 3.82v25.17h-12.23l-.03-32.97ZM591.24 405.57h-.2c-2.9 4.68-8 7.78-15.08 7.78-10.9 0-20.38-9.48-20.38-24.68 0-17.77 11.39-26.16 21.77-26.16 6.79 0 11.6 2.88 14.19 7.48l.22.11.27-6.5h11.9c-.2 4.4-.4 9-.4 14.1v54.34h-12.24l-.05-26.47Zm0-21.9c.01-1-.1-2-.3-2.98a10.79 10.79 0 0 0-10.5-8.56c-7.9 0-12.39 6.72-12.39 15.9 0 8.9 4.3 15.58 12.09 15.58 4.94.03 9.27-3.3 10.5-8.1.4-1.21.6-2.49.6-3.77v-8.06ZM660.26 397.68c0 5.77.2 10.57.4 14.58h-10.8l-.6-7.4h-.2a17.61 17.61 0 0 1-15.56 8.5c-8.9 0-16.98-5.28-16.98-21.17V363.6h12.23v26.51c0 8.09 2.62 13.28 9.12 13.28a10.42 10.42 0 0 0 9.4-6.59c.44-1.22.67-2.5.69-3.8v-29.35h12.23l.07 34.02ZM682.24 391.35c.32 8.79 7.2 12.58 15 12.58 4.59.12 9.15-.62 13.46-2.19l1.8 8.49a45.64 45.64 0 0 1-16.97 3.13c-15.79 0-25.07-9.78-25.07-24.68 0-13.45 8.2-26.16 23.76-26.16 15.9 0 20.98 12.99 20.98 23.68.02 1.73-.12 3.47-.4 5.18l-32.56-.03Zm21.43-8.57c.1-4.5-1.9-11.88-10.1-11.88-7.59 0-10.78 6.9-11.28 11.88h21.38ZM234.22 465.13c-.2-3.83-.45-8.47-.45-11.86h-.09c-.97 3.18-2.08 6.65-3.46 10.44l-4.89 13.35h-2.7l-4.48-13.1c-1.3-3.92-2.37-7.43-3.14-10.7h-.09c-.08 3.43-.28 8-.52 12.17l-.74 11.79h-3.39l1.92-27.5h4.53l4.68 13.3a127.4 127.4 0 0 1 2.78 9.25h.09c.73-2.76 1.7-5.78 2.93-9.25l4.9-13.3h4.53l1.71 27.5h-3.47l-.65-12.09ZM298.64 477.67c-7.34 0-12.35-5.64-12.35-13.96 0-8.73 5.38-14.44 12.72-14.44 7.54 0 12.41 5.75 12.41 13.92 0 9.42-5.76 14.48-12.73 14.48h-.05Zm.17-2.9c5.63 0 8.8-5.19 8.8-11.42 0-5.47-2.84-11.18-8.76-11.18s-8.86 5.5-8.86 11.46c0 5.95 3.18 11.14 8.77 11.14h.05ZM360.1 477.22v-27.5H364l8.77 13.9a72.33 72.33 0 0 1 4.9 8.95h.12c-.32-3.67-.4-7.01-.4-11.25v-11.55h3.38v27.5h-3.67l-8.73-13.96a78.89 78.89 0 0 1-5.1-9.19h-.12c.2 3.47.24 6.78.24 11.34v11.76h-3.3ZM437.52 452.73h-8.37v-3h20.37v3h-8.4v24.46h-3.6v-24.46ZM497.92 450.13c2.25-.42 4.53-.62 6.82-.62 3.79 0 6.28.74 8 2.3a6.85 6.85 0 0 1 2.16 5.21c0 3.22-2.1 6.06-5.19 6.98v.12c2.08.73 3.36 2.69 4.05 5.55.5 2.57 1.19 5.1 2.08 7.55h-3.67a34.27 34.27 0 0 1-1.78-6.57c-.82-3.8-2.34-5.22-5.56-5.35h-3.35v11.92h-3.54l-.02-27.1Zm3.55 12.48h3.67c3.8 0 6.2-2.08 6.2-5.22 0-3.56-2.57-5.1-6.32-5.1-1.18-.03-2.36.08-3.51.32l-.04 10ZM578.14 464.32H567.5v9.91h11.91v2.99h-15.5v-27.5h14.9v2.97h-11.3v8.7h10.64v2.94Zm-.66-20.88-5.25 4.8h-2.9l3.84-4.8h4.31ZM632.53 468.57l-2.86 8.65H626l9.35-27.5h4.28l9.39 27.5h-3.8l-2.94-8.65h-9.75Zm9.02-2.78-2.7-7.91c-.58-1.8-.98-3.44-1.4-5.03h-.12a66.05 66.05 0 0 1-1.35 4.98l-2.69 7.96h8.26ZM697.09 449.72h3.58v24.46h11.75v2.99H697.1v-27.45ZM409.63 203.77l-12.73 9.78h-10.86l8.98-9.78h14.61Z"/><path fill="#ee3124" d="M215 301.87h4.84c13.26 0 22.6-12.23 25.85-23.75l.94-3.88-.15-4.1c-.83 19.07-19.9 36.34-37.78 27.32-1.39-.84-2.2-1.57-2.02-1.84.17-.27 1.06.22 2.44.7 36.12 10.27 45.9-41.52 18.81-61.87-8.56-6.42-16.8-7.48-26.9-4.82h3.67c27.5-1.4 49.86 41.11 25.02 62.8 0 0-1.08.83-1.22.58-.15-.24.14-.57.7-.94 10.7-9.28 13.14-25.68 7.33-38.72a34.04 34.04 0 0 0-23.3-21.3c19.66 5.54 31.49 33.16 20.06 51.56a22.9 22.9 0 0 1-1.92 2.52c-2.35 2.94-6.68 5.24-6.84 4.89-.15-.36 4.37-2.84 6.93-6.84 11-16.78 1.22-48.52-24.2-49.12-31.6-.73-43.89 24.13-47.46 31.14l.84-.54c.53.42.47 2.45-.16 4.53l-.89 3.18a64.91 64.91 0 0 1 9.6-18.35c16.44-22.7 56.53-26.06 63.15 4.52l.22 1.53c-.09.28-.3.26-.48-.21-6.2-16.61-18.47-21.14-34.72-17.66-21.58 4.94-31.1 25.84-30.04 46.63 1.3 22.21 18.16 43.96 39.53 47.4 32.06 5.2 61.4-10.54 74.64-43.73 5.03-12.67 7.46-25.39 11.01-27.05 2.29-.83 4.02 2.92 4.44 9.56 1.85-11 4.58-21.82 8.18-32.37 5-15.06 1.4-31.8-.39-33.88a127.44 127.44 0 1 0 22.59 125.6c.44-1.3.3-1.63.17-1.49a84.25 84.25 0 0 1-7.57 12.59c-2.52 3.53-5.53 7.34-5.53 7.34-31.01 38.25-97.84 58.78-150.74 23.94-35.53-22.01-57.26-68.36-46.87-111.7 8.42-35.09 41.22-66.2 81.7-67.14 39.4-.92 61.88 20.13 69.38 51.63 5.46 22.82.7 48.62-21.62 66.56-20.87 17.46-73.9 13.37-72.16-37.3 1-11.88 5.83-14.6 6.68-15.23 1.35 0-1.36 2.05-2.92 11.46-5.58 48.3 48.44 56.03 67.94 36.22 20.66-18 24.23-44.99 16.97-66.34-7.5-21.44-25.12-39.55-50.5-43.32 9.78 2.64 19 7.06 27.18 13.04 17.75 15 25.22 33.62 22.02 58.7-2.45 26.46-33.19 54.88-64.82 35.97-1.01-.67-1.91-1.5-2.67-2.44-.3-.48.41 0 1.61.85 19.57 14.68 47.34 3.28 55.43-13.84-2.18 2.13-3.76 3.06-4.22 2.44-.45-.6 1.12-2.66 1.98-5.54a24.14 24.14 0 0 1-7.48 9.17c-1.6 1.28-3.84 2.86-4 2.44-.16-.42 1.28-1.53 3.31-3.24 10.89-8.7 15.7-26.58 13-42.8-2.98-17.9-15.3-33.87-32.13-40.61 1.57.9 2.91 2.16 3.9 3.67l6.51 4.67c20.13 13.55 28.8 46.74 13.46 68.92-7.88 10.09-18.78 15.9-32.24 14.76-1.88-.12-3.74-.5-5.52-1.1-18.97-6.43-20.55-30.43-9.53-39.14a5.83 5.83 0 0 1 2.45-1.48c.16.09-1.13.94-1.85 1.68-11.79 9.87-6.22 32.52 7.72 37.5 1.76.64 3.59 1.1 5.44 1.34 3.57.58 7.22.45 10.74-.39 33.38-7.44 35.81-48.65 21.28-69 13.66 21.1 10.1 56.37-17.51 66.19a19.3 19.3 0 0 1-8.8 1.69 5.85 5.85 0 0 1-2.22-.33c-.22-.16.41-.32 1.22-.32h2.45c-5.24.08-8.77-1.8-8.34-2.9.33-.3 1.99-.43 4.35-.47"/><path fill="#ee3124" d="M309.72 306.26c-3.67 7.74-6.4 14.03-11 20.3-.14.18-.12.25 0 .18l.48-.49a127.04 127.04 0 0 0 18.24-32.96l1.48-4.2.2-.5 1.51-3.74-.46 1.32c-.32.89-.44 1.68-.27 1.8.17.13.2-.06.33-.24-1.04 3.28-1.62 6.69-2.94 9.78a23 23 0 0 0-.97 2.56 72.49 72.49 0 0 1-5.82 10.15l-.55.8a9.42 9.42 0 0 0-1.32 2.88v.45c-4.83 7.44-10.2 14.84-16.38 20.67-.29.32-.41.53-.3.55l-.43.37c-.71.89-1.5 1.7-2.36 2.45-.2.17-.28.3-.15.27.22-.07.41-.18.58-.32.86-.81 1.68-1.67 2.45-2.57l.12-.2c.29-.17.56-.38.8-.62 6.67-5.77 11.49-12.93 16.48-20.18a98.46 98.46 0 0 1-7.5 11.18 81.77 81.77 0 0 1-11.3 12.17c-.23.2-.34.37-.3.4.2-.06.38-.16.5-.32 9.17-7.54 14.69-16.52 21-26.67l.74-1.22a66.88 66.88 0 0 1-4.89 10.02 91.56 91.56 0 0 1-23.62 23.5c-.44.3-.75.64-.68.7.07.08.49-.08.94-.38a91.03 91.03 0 0 0 15.22-11.51l-.84 1.07-.96.92c-3.18 2.66-6.12 5.64-9.63 7.85-1.28.86-2.21 1.79-2.1 2.1.1.33 1.22-.16 2.5-1l-.57.46c-.2.16-.3.3-.22.3.21-.06.4-.16.57-.3l2.06-1.65a86.95 86.95 0 0 0 17.32-16.51A83.68 83.68 0 0 1 289 344.21c.13-.13.1-.2-.1-.1a2.8 2.8 0 0 0-.62.4c-.14.17-.08.2.1.13-3.8 2.92-8.18 4.9-12.45 7.1-.25.13-.44.29-.42.33.03.05.29 0 .57-.15 14.67-6.55 26.56-17.78 34.84-30.48l1.47-2.02c.54-.19 1.04-.5 1.44-.9-3.19 4.37-6.11 8.97-9.84 12.9a85.99 85.99 0 0 1-9.94 9.27c-.48.42-.84.86-.76.98.07.12.53-.16 1.06-.61l2.56-2.18c-.6.73-.9 1.3-.78 1.54.13.23.62.11 1.33-.27-3.48 3.67-7.65 6.42-11.49 9.52-.22.18-.32.3-.2.3.21-.07.42-.18.6-.33a99.68 99.68 0 0 0 16.27-13.45 86.02 86.02 0 0 0 11.49-12.38c4.98-6.69 9-14.05 11.92-21.86a56.04 56.04 0 0 0 3.38-7.97c0 .42 0 .7.18.75h.12a57.23 57.23 0 0 1-2.88 7.12c-9.79 21.79-24.11 41.3-45.45 52.96-1.36.74-2.24 1.49-1.96 1.66a5.97 5.97 0 0 0 3.02-1.04 79.77 79.77 0 0 0 25.98-21.37 107.76 107.76 0 0 0 13.06-19.41 150.27 150.27 0 0 0 10.89-25.16c.57-1.72 1.86-6.3 2.01-6.85a126.8 126.8 0 0 0-11.76-44.88c.1 2.44.17 4.81.18 7.25a163.28 163.28 0 0 1-13.1 61.24Z"/></svg>