<svg xmlns="http://www.w3.org/2000/svg" width="668" height="176" version="1.1" viewBox="0 0 668 176"><g id="Page-1" fill="none" fill-rule="evenodd" stroke="none" stroke-width="1"><g id="logo" fill-rule="nonzero"><g id="Group" fill="#022B3C" transform="translate(218 3)"><path id="Shape" d="M39 41h-5.75c-.653 0-1.178-.156-1.59-.483a2.784 2.784 0 0 1-.894-1.208l-2.982-8.156H11.216l-2.982 8.156c-.142.426-.44.81-.866 1.165S6.403 41 5.778 41H0L15.702 1h7.596L39 41ZM13.118 25.895h12.75l-4.87-13.314a62.315 62.315 0 0 1-.738-2.089 60.14 60.14 0 0 1-.795-2.615c-.256.938-.512 1.82-.753 2.63-.256.81-.497 1.52-.738 2.13l-4.856 13.258Z"/><path id="Path" d="M49 0v41h-7V0zM65 0v41h-7V0z"/><path id="Shape" d="M80 4.254c0 .581-.104 1.122-.326 1.62a4.45 4.45 0 0 1-.873 1.317 4.272 4.272 0 0 1-1.277.9 3.8 3.8 0 0 1-1.576.333c-.547 0-1.055-.11-1.538-.333a4 4 0 0 1-1.25-.9 4.378 4.378 0 0 1-.847-1.316A4.161 4.161 0 0 1 72 4.254c0-.596.104-1.15.313-1.677a4.19 4.19 0 0 1 .847-1.344 4 4 0 0 1 1.25-.9C74.893.11 75.4 0 75.948 0a3.8 3.8 0 0 1 1.576.333c.496.221.912.526 1.277.9.365.374.652.831.873 1.344.209.527.326 1.08.326 1.677Zm-.951 8.063V40h-6.267V12.317h6.267ZM109 40.537h-3.112c-.648 0-1.167-.098-1.541-.28-.375-.197-.648-.576-.836-1.166l-.619-1.993a26.78 26.78 0 0 1-2.147 1.684c-.705.477-1.426.885-2.175 1.221-.749.323-1.541.576-2.391.744-.836.169-1.772.253-2.81.253-1.21 0-2.333-.154-3.37-.477-1.023-.323-1.916-.8-2.65-1.446a6.69 6.69 0 0 1-1.73-2.386c-.417-.955-.619-2.064-.619-3.313 0-1.067.288-2.105.85-3.144.576-1.039 1.513-1.965 2.852-2.794 1.34-.828 3.098-1.516 5.302-2.063 2.204-.547 4.94-.828 8.21-.828v-1.656c0-1.895-.402-3.3-1.224-4.197-.806-.913-2.002-1.362-3.543-1.362-1.124 0-2.06.126-2.81.379-.749.253-1.397.547-1.944.856-.548.323-1.066.604-1.527.856-.461.253-.98.38-1.542.38-.46 0-.864-.113-1.21-.351a2.93 2.93 0 0 1-.807-.87l-1.267-2.162C89.653 13.474 93.643 12 98.31 12c1.686 0 3.185.267 4.496.8a9.704 9.704 0 0 1 3.356 2.246c.922.954 1.614 2.106 2.089 3.425.475 1.32.72 2.793.72 4.38v17.686H109Zm-13.455-4.211c.706 0 1.369-.056 1.96-.183a7.52 7.52 0 0 0 1.7-.561 9.118 9.118 0 0 0 1.54-.927c.49-.365.994-.8 1.499-1.305v-4.688c-2.017 0-3.703.126-5.057.365-1.354.252-2.449.561-3.27.954-.821.393-1.412.842-1.757 1.348a2.949 2.949 0 0 0-.519 1.684c0 1.193.36 2.05 1.08 2.555.72.505 1.657.758 2.824.758Z"/><path id="Path" d="M115 39.972V12.414h4.22c.89 0 1.477.4 1.765 1.214l.473 2.179c.574-.58 1.191-1.09 1.837-1.559.646-.469 1.32-.869 2.038-1.214a10.264 10.264 0 0 1 2.31-.772c.819-.18 1.708-.262 2.684-.262 1.565 0 2.957.248 4.162.772 1.206.51 2.225 1.228 3.028 2.152.804.924 1.421 2.028 1.852 3.31.416 1.283.631 2.69.631 4.235V40h-6.903V22.428c0-1.683-.402-2.98-1.22-3.904-.804-.924-2.023-1.38-3.645-1.38-1.191 0-2.31.263-3.358.773a11.757 11.757 0 0 0-2.957 2.124v19.931H115ZM166.904 18.355c-.2.254-.4.451-.6.606-.199.141-.47.226-.84.226a1.86 1.86 0 0 1-1.027-.31 25.82 25.82 0 0 0-1.198-.72 9.039 9.039 0 0 0-1.654-.718c-.642-.211-1.426-.31-2.368-.31-1.197 0-2.253.212-3.165.648a5.871 5.871 0 0 0-2.268 1.846c-.599.804-1.055 1.776-1.34 2.917-.3 1.142-.442 2.438-.442 3.89 0 1.493.157 2.832.485 4.001.328 1.17.798 2.156 1.397 2.946a6.13 6.13 0 0 0 2.225 1.817c.87.409 1.854.62 2.937.62 1.098 0 1.983-.126 2.653-.394a9.569 9.569 0 0 0 1.711-.874c.456-.324.87-.606 1.212-.874a1.82 1.82 0 0 1 1.155-.394c.556 0 .97.211 1.255.634L169 36.378a12.436 12.436 0 0 1-2.467 2.212 13.18 13.18 0 0 1-2.767 1.424c-.955.352-1.939.606-2.951.76-1.013.141-2.025.226-3.024.226-1.754 0-3.408-.324-4.962-.972a11.45 11.45 0 0 1-4.064-2.847c-1.155-1.24-2.068-2.762-2.753-4.565-.67-1.804-1.012-3.847-1.012-6.158 0-2.072.3-3.988.898-5.75.6-1.761 1.483-3.297 2.653-4.58 1.17-1.282 2.61-2.296 4.335-3.029 1.725-.733 3.708-1.099 5.946-1.099 2.125 0 3.993.338 5.59 1.015 1.598.676 3.038 1.648 4.321 2.902l-1.84 2.438Z"/><path id="Shape" d="M184.67 12c1.799 0 3.454.282 4.952.845a10.92 10.92 0 0 1 3.91 2.477c1.1 1.084 1.941 2.422 2.555 3.998.613 1.577.913 3.393.913 5.42 0 .507-.029.93-.071 1.281-.043.338-.129.606-.257.789a.975.975 0 0 1-.485.408c-.2.084-.457.127-.771.127h-17.61c.2 2.886.985 5.011 2.37 6.363 1.37 1.351 3.182 2.027 5.45 2.027 1.114 0 2.07-.127 2.883-.38a13.62 13.62 0 0 0 2.112-.845c.6-.31 1.128-.591 1.584-.844.457-.254.9-.38 1.313-.38.271 0 .514.056.728.168.2.113.385.268.528.465l1.998 2.464a11.438 11.438 0 0 1-2.555 2.21 14.22 14.22 0 0 1-2.954 1.422c-1.027.352-2.069.605-3.139.76-1.07.14-2.098.225-3.097.225-1.983 0-3.824-.324-5.522-.971a12.574 12.574 0 0 1-4.452-2.872c-1.256-1.267-2.255-2.844-2.968-4.716-.728-1.873-1.085-4.04-1.085-6.504 0-1.915.314-3.73.942-5.42.628-1.69 1.527-3.167 2.711-4.406 1.17-1.253 2.612-2.239 4.31-2.97 1.67-.775 3.581-1.141 5.708-1.141Zm.143 4.843c-1.997 0-3.567.563-4.694 1.675-1.128 1.112-1.856 2.703-2.17 4.744h12.886c0-.873-.114-1.703-.356-2.478a5.692 5.692 0 0 0-1.113-2.04c-.5-.592-1.128-1.043-1.884-1.38-.756-.352-1.655-.521-2.669-.521Z"/><path id="Path" d="M221.685 41c-2.415 0-4.272-.705-5.57-2.116-1.299-1.41-1.955-3.354-1.955-5.844V16.977h-2.834a1.32 1.32 0 0 1-.935-.36c-.265-.245-.391-.605-.391-1.094v-2.75l4.481-.762 1.41-7.845c.07-.374.238-.662.503-.864.265-.201.586-.302.991-.302h3.476v9.054h7.343v4.937h-7.343V32.58c0 .892.223 1.597.656 2.101.433.504 1.02.763 1.745.763.42 0 .768-.058 1.047-.158.28-.101.53-.216.74-.317.21-.115.391-.216.559-.317.167-.1.32-.158.488-.158a.77.77 0 0 1 .489.158c.126.101.265.26.405.46l2.01 3.37a10.031 10.031 0 0 1-3.364 1.9 13.11 13.11 0 0 1-3.951.618Z"/><path id="Shape" d="M245.035 12c2.11 0 4.037.339 5.75 1.016 1.714.677 3.187 1.636 4.405 2.877 1.218 1.241 2.153 2.765 2.819 4.556.665 1.791.991 3.794.991 6.009 0 2.228-.326 4.245-.991 6.037-.666 1.791-1.6 3.328-2.819 4.584-1.218 1.27-2.677 2.228-4.404 2.905-1.714.677-3.64 1.016-5.75 1.016s-4.037-.339-5.765-1.016c-1.728-.677-3.2-1.65-4.433-2.905-1.218-1.27-2.167-2.793-2.832-4.584-.666-1.792-1.006-3.809-1.006-6.037 0-2.215.34-4.218 1.006-6.01.665-1.79 1.614-3.314 2.832-4.555 1.218-1.241 2.691-2.2 4.433-2.877C241 12.339 242.925 12 245.035 12Zm0 23.81c2.351 0 4.093-.79 5.227-2.356 1.133-1.58 1.7-3.88 1.7-6.926 0-3.046-.567-5.36-1.7-6.954-1.134-1.593-2.876-2.383-5.227-2.383-2.393 0-4.15.804-5.297 2.398-1.147 1.607-1.713 3.92-1.713 6.94 0 3.018.566 5.317 1.713 6.91 1.148 1.58 2.918 2.37 5.297 2.37Z"/><path id="Path" d="M28 66v5.923H10.432v11.094H24.27v5.724H10.432v11.307H28V106H3V66zM34 105.959V78.414h4.22c.89 0 1.477.4 1.765 1.213l.473 2.178a14.84 14.84 0 0 1 1.837-1.558c.646-.469 1.32-.868 2.038-1.213a10.268 10.268 0 0 1 2.31-.772c.819-.18 1.708-.262 2.684-.262 1.565 0 2.957.248 4.162.772 1.206.51 2.225 1.227 3.028 2.15.804.924 1.421 2.027 1.852 3.31.416 1.282.631 2.688.631 4.232v17.522h-6.903V88.464c0-1.682-.402-2.978-1.22-3.902-.804-.923-2.023-1.378-3.645-1.378-1.191 0-2.31.262-3.358.772a11.757 11.757 0 0 0-2.957 2.123V106H34v-.041Z"/><path id="Shape" d="M85.867 106.607c-.877 0-1.458-.407-1.74-1.235l-.553-2.708a18.204 18.204 0 0 1-1.84 1.782c-.65.533-1.33.982-2.08 1.361-.75.38-1.543.674-2.392.884-.85.21-1.784.309-2.774.309-1.543 0-2.958-.323-4.246-.954-1.288-.632-2.392-1.558-3.326-2.778-.935-1.207-1.642-2.708-2.152-4.49-.51-1.782-.764-3.831-.764-6.118 0-2.077.283-4.013.85-5.795.565-1.782 1.386-3.34 2.448-4.645a11.235 11.235 0 0 1 3.835-3.072c1.486-.744 3.157-1.109 5.01-1.109 1.586 0 2.93.253 4.049.758a10.576 10.576 0 0 1 3 2.006V66H90v40.593h-4.133v.014Zm-9.072-4.953c1.415 0 2.618-.295 3.609-.87.99-.59 1.925-1.417 2.816-2.484V85.728c-.778-.926-1.613-1.585-2.519-1.964a7.52 7.52 0 0 0-2.93-.575c-1.033 0-1.967.196-2.802.575a5.362 5.362 0 0 0-2.123 1.74c-.58.771-1.02 1.754-1.33 2.946-.312 1.193-.468 2.596-.468 4.224 0 1.642.128 3.03.397 4.167s.65 2.063 1.146 2.792c.496.73 1.104 1.235 1.826 1.558.708.309 1.5.463 2.378.463Z"/><path id="Path" d="M141 106h-7.333V88.514h-18.334V106H108V66h7.333v17.202h18.334V66H141z"/><path id="Shape" d="M161.035 78c2.11 0 4.037.339 5.75 1.016 1.714.677 3.187 1.636 4.405 2.877 1.218 1.241 2.153 2.765 2.819 4.556.665 1.791.991 3.794.991 6.009 0 2.228-.326 4.245-.991 6.037-.666 1.791-1.6 3.328-2.819 4.584-1.218 1.27-2.677 2.228-4.404 2.905-1.714.677-3.64 1.016-5.75 1.016s-4.037-.339-5.765-1.016c-1.728-.677-3.2-1.65-4.419-2.905-1.218-1.27-2.167-2.793-2.846-4.584-.666-1.792-1.006-3.809-1.006-6.037 0-2.215.34-4.218 1.006-6.01.665-1.79 1.614-3.314 2.846-4.555 1.218-1.241 2.691-2.2 4.42-2.877 1.727-.677 3.653-1.016 5.763-1.016Zm0 23.81c2.351 0 4.093-.79 5.227-2.356 1.133-1.58 1.7-3.88 1.7-6.926 0-3.032-.567-5.36-1.7-6.954-1.134-1.593-2.876-2.383-5.227-2.383-2.393 0-4.15.804-5.297 2.398-1.133 1.607-1.713 3.92-1.713 6.94 0 3.018.566 5.317 1.713 6.91 1.148 1.58 2.904 2.37 5.297 2.37Z"/><path id="Path" d="M180 105.972V78.427h4.085c.861 0 1.43.4 1.709 1.214l.43 2.04c.487-.538 1-1.034 1.529-1.475a10.314 10.314 0 0 1 1.709-1.158 9.68 9.68 0 0 1 1.945-.772c.695-.193 1.459-.276 2.292-.276 1.75 0 3.182.469 4.321 1.406 1.126.938 1.973 2.192 2.529 3.75.43-.91.973-1.696 1.626-2.344a9.106 9.106 0 0 1 2.14-1.599 9.666 9.666 0 0 1 2.472-.91c.876-.193 1.75-.29 2.64-.29 1.528 0 2.89.235 4.085.704 1.195.469 2.195 1.144 3.001 2.04.806.896 1.431 1.985 1.848 3.281.417 1.283.639 2.758.639 4.426v17.522h-6.683V88.464c0-1.751-.389-3.075-1.167-3.957-.778-.882-1.917-1.323-3.404-1.323-.68 0-1.32.11-1.903.344a4.585 4.585 0 0 0-1.543 1.007c-.444.44-.792.992-1.042 1.654-.25.662-.375 1.42-.375 2.275v17.522h-6.71V88.464c0-1.848-.376-3.185-1.126-4.026-.75-.84-1.848-1.254-3.307-1.254-.958 0-1.848.234-2.695.717a8.71 8.71 0 0 0-2.334 1.943V106H180v-.028Z"/><path id="Shape" d="M237.677 78c1.797 0 3.452.282 4.95.845a10.913 10.913 0 0 1 3.907 2.477c1.098 1.084 1.94 2.422 2.553 3.998.613 1.577.913 3.393.913 5.42 0 .507-.029.93-.071 1.281-.043.338-.129.606-.257.789a.975.975 0 0 1-.485.408c-.2.084-.456.127-.77.127h-17.614c.2 2.886.984 5.011 2.368 6.363 1.369 1.351 3.18 2.027 5.448 2.027 1.112 0 2.068-.127 2.88-.38a13.608 13.608 0 0 0 2.112-.845c.599-.31 1.126-.591 1.583-.844.456-.254.898-.38 1.312-.38.27 0 .513.056.727.168.2.113.385.268.528.465l1.997 2.464a11.434 11.434 0 0 1-2.553 2.21 14.208 14.208 0 0 1-2.953 1.422 17.27 17.27 0 0 1-3.137.76c-1.07.155-2.097.225-3.095.225-1.983 0-3.823-.324-5.52-.971a12.566 12.566 0 0 1-4.45-2.872c-1.255-1.267-2.253-2.844-2.966-4.716-.727-1.873-1.084-4.04-1.084-6.504 0-1.915.314-3.73.941-5.42.628-1.69 1.526-3.167 2.71-4.406 1.17-1.253 2.61-2.239 4.307-2.97 1.669-.775 3.58-1.141 5.72-1.141Zm.129 4.843c-1.997 0-3.566.563-4.692 1.675-1.127 1.112-1.855 2.703-2.168 4.744h12.878c0-.873-.114-1.703-.356-2.478a5.693 5.693 0 0 0-1.113-2.04c-.499-.592-1.126-1.043-1.882-1.38-.756-.352-1.64-.521-2.667-.521Z"/><path id="Path" d="M263 66v41h-7V66z"/><path id="Shape" d="M282.677 78c1.797 0 3.452.282 4.95.845a10.913 10.913 0 0 1 3.907 2.477c1.098 1.084 1.94 2.422 2.553 3.998.613 1.577.913 3.393.913 5.42 0 .507-.029.93-.071 1.281-.043.338-.129.606-.257.789a.975.975 0 0 1-.485.408c-.2.084-.456.127-.77.127h-17.614c.2 2.886.984 5.011 2.368 6.363 1.369 1.351 3.18 2.027 5.448 2.027 1.112 0 2.068-.127 2.88-.38a13.608 13.608 0 0 0 2.112-.845c.599-.31 1.126-.591 1.583-.844.456-.254.898-.38 1.312-.38.27 0 .513.056.727.168.2.113.385.268.528.465l1.997 2.464a11.434 11.434 0 0 1-2.553 2.21 14.208 14.208 0 0 1-2.953 1.422 17.27 17.27 0 0 1-3.137.76c-1.07.155-2.097.225-3.095.225-1.983 0-3.823-.324-5.52-.971a12.566 12.566 0 0 1-4.45-2.872c-1.255-1.267-2.253-2.844-2.966-4.716-.727-1.873-1.084-4.04-1.084-6.504 0-1.915.314-3.73.941-5.42.628-1.69 1.526-3.167 2.71-4.406 1.17-1.253 2.61-2.239 4.307-2.97 1.683-.775 3.594-1.141 5.72-1.141Zm.143 4.843c-1.997 0-3.565.563-4.692 1.675-1.127 1.112-1.854 2.703-2.168 4.744h12.879c0-.873-.114-1.703-.357-2.478a5.693 5.693 0 0 0-1.112-2.04c-.5-.592-1.127-1.043-1.883-1.38-.756-.352-1.654-.521-2.667-.521Z"/><path id="Path" d="M316.17 83.988c-.183.296-.38.492-.577.619-.197.112-.45.183-.774.183s-.676-.099-1.056-.282c-.38-.182-.802-.393-1.295-.618a12.242 12.242 0 0 0-1.689-.619c-.633-.182-1.379-.28-2.237-.28-1.338 0-2.38.28-3.153.843-.774.562-1.154 1.307-1.154 2.22 0 .605.197 1.111.59 1.519.395.408.916.773 1.563 1.082.648.31 1.38.59 2.21.83.816.253 1.66.52 2.52.801.858.295 1.702.633 2.519.998.816.38 1.562.843 2.21 1.42a6.686 6.686 0 0 1 1.562 2.066c.394.801.591 1.771.591 2.896 0 1.35-.253 2.6-.746 3.74a8.125 8.125 0 0 1-2.168 2.951c-.957.83-2.125 1.476-3.518 1.94-1.394.464-2.998.703-4.814.703-.971 0-1.914-.084-2.843-.253a16.092 16.092 0 0 1-2.66-.731 14.448 14.448 0 0 1-2.35-1.096 11.737 11.737 0 0 1-1.901-1.364l1.562-2.572c.197-.31.437-.549.718-.717.282-.17.62-.253 1.042-.253.422 0 .816.112 1.196.351s.802.492 1.295.76c.493.28 1.07.533 1.745.772.662.24 1.506.352 2.534.352.802 0 1.492-.099 2.069-.281.577-.197 1.055-.436 1.421-.76.38-.309.648-.674.817-1.082.169-.408.267-.83.267-1.28 0-.66-.197-1.194-.59-1.616-.395-.421-.916-.787-1.563-1.096-.648-.31-1.394-.59-2.224-.83-.83-.253-1.675-.52-2.548-.815a23.508 23.508 0 0 1-2.547-1.026 8.674 8.674 0 0 1-2.224-1.49 6.727 6.727 0 0 1-1.562-2.221c-.395-.872-.592-1.94-.592-3.177 0-1.153.226-2.25.69-3.29a7.608 7.608 0 0 1 2.013-2.727c.886-.773 1.998-1.391 3.321-1.855 1.324-.464 2.858-.703 4.589-.703 1.942 0 3.702.323 5.292.956 1.59.647 2.914 1.476 3.97 2.516l-1.52 2.516ZM340.184 83.988c-.183.296-.38.492-.577.619a1.574 1.574 0 0 1-.774.183c-.324 0-.675-.099-1.056-.282-.38-.182-.816-.393-1.309-.618a12.242 12.242 0 0 0-1.689-.619c-.633-.182-1.379-.28-2.237-.28-1.338 0-2.38.28-3.153.843-.76.562-1.154 1.307-1.154 2.22 0 .605.197 1.111.59 1.519.395.408.916.773 1.563 1.082.648.31 1.38.59 2.21.83.816.253 1.66.52 2.52.801.858.295 1.702.633 2.519.998.816.38 1.562.843 2.21 1.42a6.686 6.686 0 0 1 1.562 2.066c.394.801.591 1.771.591 2.896 0 1.35-.253 2.6-.746 3.74a8.125 8.125 0 0 1-2.168 2.951c-.957.83-2.125 1.476-3.518 1.94-1.394.464-2.998.703-4.814.703-.971 0-1.914-.084-2.843-.253a16.48 16.48 0 0 1-2.66-.731 14.448 14.448 0 0 1-2.35-1.096 11.737 11.737 0 0 1-1.901-1.364l1.562-2.572c.197-.31.437-.549.718-.717.268-.17.62-.253 1.042-.253.422 0 .816.112 1.196.351s.802.492 1.31.76c.492.28 1.069.533 1.744.772.662.24 1.506.352 2.534.352.802 0 1.492-.099 2.069-.281.577-.197 1.056-.436 1.422-.76.38-.309.647-.674.816-1.082.169-.408.253-.83.253-1.28 0-.66-.197-1.194-.59-1.616-.395-.421-.916-.787-1.563-1.096-.648-.31-1.394-.59-2.224-.83-.83-.253-1.675-.52-2.548-.815a23.508 23.508 0 0 1-2.547-1.026 8.674 8.674 0 0 1-2.224-1.49 6.727 6.727 0 0 1-1.562-2.221c-.395-.872-.592-1.94-.592-3.177 0-1.153.226-2.25.69-3.29a7.608 7.608 0 0 1 2.013-2.727c.886-.773 1.984-1.391 3.321-1.855 1.324-.464 2.858-.703 4.589-.703 1.942 0 3.702.323 5.292.956 1.59.647 2.914 1.476 3.97 2.516l-1.507 2.516ZM347 105.959V78.414h4.22c.89 0 1.477.4 1.765 1.213l.473 2.178a14.84 14.84 0 0 1 1.837-1.558 13.11 13.11 0 0 1 2.038-1.213 10.268 10.268 0 0 1 2.31-.772c.819-.18 1.708-.262 2.684-.262 1.565 0 2.957.248 4.162.772 1.206.51 2.225 1.227 3.028 2.15.804.924 1.421 2.027 1.852 3.31.416 1.282.631 2.688.631 4.232v17.522h-6.903V88.464c0-1.682-.402-2.978-1.22-3.902-.804-.923-2.023-1.378-3.645-1.378-1.191 0-2.31.262-3.358.772a11.757 11.757 0 0 0-2.957 2.123V106H347v-.041Z"/><path id="Shape" d="M390.663 78c1.797 0 3.452.282 4.963.845a10.913 10.913 0 0 1 3.908 2.477c1.098 1.084 1.94 2.422 2.553 3.998.613 1.577.913 3.393.913 5.42 0 .507-.029.93-.071 1.281-.043.352-.129.606-.257.789a.975.975 0 0 1-.485.408c-.2.084-.47.127-.784.127h-17.6c.2 2.886.984 5.011 2.353 6.363 1.37 1.351 3.18 2.027 5.448 2.027 1.113 0 2.069-.127 2.881-.38a13.608 13.608 0 0 0 2.111-.845c.6-.31 1.127-.591 1.583-.844.457-.254.899-.38 1.312-.38.286 0 .514.056.728.168.2.113.385.268.528.465l1.996 2.464a11.434 11.434 0 0 1-2.553 2.21 14.208 14.208 0 0 1-2.952 1.422 17.27 17.27 0 0 1-3.138.76c-1.07.155-2.096.225-3.095.225-1.982 0-3.822-.324-5.519-.971a12.385 12.385 0 0 1-4.436-2.872c-1.255-1.267-2.253-2.844-2.966-4.716-.713-1.873-1.084-4.04-1.084-6.504 0-1.915.314-3.73.941-5.42.628-1.69 1.526-3.167 2.71-4.406 1.17-1.253 2.61-2.239 4.307-2.97 1.669-.775 3.58-1.141 5.705-1.141Zm.143 4.843c-1.997 0-3.566.563-4.692 1.675-1.127 1.112-1.855 2.703-2.168 4.744h12.878c0-.873-.114-1.703-.356-2.478a5.693 5.693 0 0 0-1.113-2.04c-.499-.592-1.126-1.043-1.882-1.38-.77-.352-1.655-.521-2.667-.521Z"/><path id="Path" d="M424.184 83.988c-.183.296-.38.492-.577.619a1.574 1.574 0 0 1-.774.183c-.324 0-.675-.099-1.056-.282-.38-.182-.816-.393-1.309-.618a12.242 12.242 0 0 0-1.689-.619c-.633-.182-1.379-.28-2.237-.28-1.338 0-2.38.28-3.153.843-.76.562-1.154 1.307-1.154 2.22 0 .605.197 1.111.59 1.519.395.408.916.773 1.563 1.082.648.31 1.38.59 2.21.83.816.253 1.66.52 2.52.801.858.295 1.702.633 2.519.998.816.38 1.562.843 2.21 1.42a6.686 6.686 0 0 1 1.562 2.066c.394.801.591 1.771.591 2.896 0 1.35-.253 2.6-.746 3.74a8.125 8.125 0 0 1-2.168 2.951c-.957.83-2.125 1.476-3.518 1.94-1.394.464-2.998.703-4.814.703-.971 0-1.914-.084-2.843-.253a16.48 16.48 0 0 1-2.66-.731 14.448 14.448 0 0 1-2.35-1.096 11.737 11.737 0 0 1-1.901-1.364l1.562-2.572c.197-.31.437-.549.718-.717.268-.17.62-.253 1.042-.253.422 0 .816.112 1.196.351s.802.492 1.31.76c.492.28 1.069.533 1.744.772.662.24 1.506.352 2.534.352.802 0 1.492-.099 2.069-.281.577-.197 1.056-.436 1.422-.76.38-.309.647-.674.816-1.082.169-.408.253-.83.253-1.28 0-.66-.197-1.194-.59-1.616-.395-.421-.916-.787-1.563-1.096-.648-.31-1.394-.59-2.224-.83-.83-.253-1.675-.52-2.548-.815a23.508 23.508 0 0 1-2.547-1.026 8.674 8.674 0 0 1-2.224-1.49 6.727 6.727 0 0 1-1.562-2.221c-.395-.872-.592-1.94-.592-3.177 0-1.153.226-2.25.69-3.29a7.608 7.608 0 0 1 2.013-2.727c.886-.773 1.984-1.391 3.321-1.855 1.324-.464 2.858-.703 4.589-.703 1.942 0 3.702.323 5.292.956 1.59.647 2.914 1.476 3.97 2.516l-1.507 2.516ZM448.17 83.988c-.183.296-.38.492-.577.619-.197.112-.45.183-.774.183s-.676-.099-1.056-.282c-.38-.182-.802-.393-1.295-.618a12.242 12.242 0 0 0-1.689-.619c-.633-.182-1.379-.28-2.237-.28-1.338 0-2.38.28-3.153.843-.774.562-1.154 1.307-1.154 2.22 0 .605.197 1.111.59 1.519.395.408.916.773 1.563 1.082.648.31 1.38.59 2.21.83.83.239 1.66.52 2.52.801.858.295 1.702.633 2.519.998.816.38 1.562.843 2.21 1.42a6.686 6.686 0 0 1 1.562 2.066c.394.801.591 1.771.591 2.896 0 1.35-.253 2.6-.746 3.74a8.125 8.125 0 0 1-2.168 2.951c-.957.83-2.125 1.476-3.518 1.94-1.394.464-2.998.703-4.814.703-.971 0-1.914-.084-2.843-.253a16.092 16.092 0 0 1-2.66-.731 14.448 14.448 0 0 1-2.35-1.096 11.737 11.737 0 0 1-1.901-1.364l1.562-2.572c.197-.31.437-.549.718-.717.282-.17.62-.253 1.042-.253.422 0 .816.112 1.196.351s.802.492 1.295.76c.493.28 1.07.533 1.745.772.662.24 1.506.352 2.534.352.802 0 1.492-.099 2.069-.281.577-.197 1.055-.436 1.421-.76.38-.309.648-.674.817-1.082.169-.408.267-.83.267-1.28 0-.66-.197-1.194-.59-1.616-.395-.421-.916-.787-1.563-1.096-.648-.31-1.394-.59-2.224-.83-.83-.253-1.675-.52-2.548-.815a23.508 23.508 0 0 1-2.547-1.026 8.674 8.674 0 0 1-2.224-1.49 6.727 6.727 0 0 1-1.562-2.221c-.395-.872-.592-1.94-.592-3.177 0-1.153.226-2.25.69-3.29a7.608 7.608 0 0 1 2.013-2.727c.886-.773 1.998-1.391 3.321-1.855 1.324-.464 2.858-.703 4.589-.703 1.942 0 3.702.323 5.292.956 1.59.647 2.914 1.476 3.97 2.516l-1.52 2.516Z"/><path id="Shape" d="M42 152c0 2.863-.477 5.518-1.444 7.964-.967 2.446-2.326 4.559-4.064 6.351-1.752 1.793-3.854 3.183-6.307 4.184-2.453 1-5.172 1.501-8.157 1.501-2.985 0-5.704-.5-8.171-1.501-2.467-1-4.583-2.39-6.335-4.184-1.752-1.779-3.111-3.905-4.078-6.351C2.477 157.518 2 154.864 2 152c0-2.863.477-5.532 1.444-7.964.967-2.446 2.326-4.559 4.078-6.351 1.752-1.793 3.868-3.183 6.335-4.184 2.467-1 5.186-1.501 8.171-1.501 2.985 0 5.704.5 8.157 1.515 2.453 1.015 4.555 2.404 6.307 4.183 1.752 1.78 3.097 3.892 4.064 6.338.967 2.446 1.444 5.1 1.444 7.964Zm-7.54 0c0-2.14-.28-4.072-.855-5.782s-1.402-3.155-2.467-4.336c-1.08-1.195-2.383-2.099-3.91-2.738-1.542-.64-3.266-.945-5.2-.945-1.934 0-3.672.32-5.214.945a10.615 10.615 0 0 0-3.938 2.738c-1.08 1.195-1.92 2.64-2.495 4.336-.588 1.71-.869 3.628-.869 5.782 0 2.14.295 4.072.87 5.782.588 1.71 1.415 3.155 2.494 4.322 1.08 1.182 2.397 2.085 3.938 2.724 1.542.64 3.28.945 5.214.945 1.934 0 3.658-.32 5.2-.945a10.526 10.526 0 0 0 3.91-2.724c1.08-1.181 1.892-2.627 2.467-4.322.574-1.71.855-3.642.855-5.782Z"/><path id="Path" d="M56.685 173c-2.415 0-4.272-.705-5.57-2.116-1.313-1.41-1.955-3.354-1.955-5.844v-16.063h-2.834a1.32 1.32 0 0 1-.935-.36c-.265-.245-.391-.605-.391-1.094v-2.75l4.481-.762 1.41-7.845c.07-.374.238-.662.503-.864.265-.201.6-.302.991-.302h3.476v9.054h7.343v4.937h-7.343v15.589c0 .892.223 1.597.656 2.101.433.504 1.02.763 1.745.763.42 0 .768-.058 1.047-.158.28-.101.53-.216.74-.317.21-.115.391-.216.559-.317.167-.1.32-.158.488-.158a.77.77 0 0 1 .489.158c.126.101.265.26.405.46l2.01 3.37a10.031 10.031 0 0 1-3.364 1.9c-1.27.402-2.583.618-3.951.618ZM77.685 173c-2.415 0-4.272-.705-5.57-2.116-1.299-1.41-1.955-3.354-1.955-5.844v-16.063h-2.834a1.32 1.32 0 0 1-.935-.36c-.265-.245-.391-.605-.391-1.094v-2.75l4.481-.762 1.41-7.845c.07-.374.238-.662.503-.864.265-.201.586-.302.991-.302h3.476v9.054h7.343v4.937h-7.343v15.589c0 .892.223 1.597.656 2.101.433.504 1.02.763 1.745.763.42 0 .768-.058 1.047-.158.28-.101.53-.216.74-.317.21-.115.391-.216.559-.317.167-.1.32-.158.488-.158a.77.77 0 0 1 .489.158c.126.101.265.26.405.46l2.01 3.37a10.031 10.031 0 0 1-3.364 1.9c-1.27.402-2.583.618-3.951.618Z"/><path id="Shape" d="M112 172.537h-3.112c-.648 0-1.167-.098-1.541-.281-.375-.196-.648-.575-.836-1.165l-.619-1.993a26.78 26.78 0 0 1-2.147 1.684c-.705.477-1.426.885-2.175 1.221-.749.323-1.541.576-2.391.744-.836.169-1.772.253-2.81.253-1.21 0-2.333-.154-3.37-.477-1.023-.323-1.916-.8-2.65-1.446a6.69 6.69 0 0 1-1.73-2.386c-.417-.955-.619-2.064-.619-3.313 0-1.067.288-2.105.85-3.144.576-1.039 1.513-1.965 2.852-2.794 1.326-.828 3.098-1.516 5.302-2.063 2.204-.547 4.94-.828 8.21-.828v-1.656c0-1.895-.402-3.3-1.224-4.197-.806-.913-2.002-1.362-3.543-1.362-1.124 0-2.06.126-2.81.379-.749.253-1.397.547-1.944.856-.548.323-1.066.604-1.527.856-.461.253-.98.38-1.542.38-.46 0-.864-.113-1.21-.351a2.754 2.754 0 0 1-.807-.87l-1.267-2.162c3.313-2.948 7.303-4.422 11.97-4.422 1.686 0 3.185.267 4.496.8a9.704 9.704 0 0 1 3.356 2.246c.922.954 1.614 2.106 2.089 3.425.475 1.333.72 2.793.72 4.38v17.686H112Zm-13.47-4.211c.706 0 1.37-.056 1.96-.183a7.52 7.52 0 0 0 1.7-.561 9.118 9.118 0 0 0 1.541-.927c.49-.365.994-.8 1.498-1.305v-4.688c-2.017 0-3.702.126-5.056.365-1.354.252-2.45.561-3.27.954-.821.393-1.412.842-1.758 1.348a2.949 2.949 0 0 0-.518 1.684c0 1.193.36 2.05 1.08 2.555.72.505 1.671.758 2.824.758Z"/><path id="Path" d="M114 144.056h5.252c.495 0 .92.112 1.25.35.344.237.55.53.647.894l3.932 14.916c.22.81.385 1.621.522 2.39.138.783.261 1.566.385 2.335.193-.783.413-1.566.633-2.335.22-.783.453-1.58.715-2.39l4.55-14.972c.11-.363.316-.657.646-.895.316-.237.701-.349 1.128-.349h2.914c.481 0 .88.112 1.21.35.316.237.536.53.646.894l4.496 15.237c.233.783.44 1.538.632 2.279.193.74.371 1.468.55 2.223.124-.783.261-1.566.412-2.335.152-.783.344-1.594.578-2.418l4.07-14.916c.082-.363.302-.657.645-.895.344-.237.73-.35 1.183-.35H156L147.298 172h-5.32c-.578 0-.977-.405-1.238-1.202l-4.95-16.146a34.377 34.377 0 0 1-.44-1.594 16.404 16.404 0 0 1-.33-1.593c-.11.545-.22 1.09-.343 1.621a25.792 25.792 0 0 1-.426 1.622l-5.005 16.09c-.247.797-.728 1.202-1.443 1.202h-5.06L114 144.056Z"/><path id="Shape" d="M183 172.537h-3.112c-.648 0-1.167-.098-1.541-.281-.375-.196-.648-.575-.836-1.165l-.619-1.993a26.78 26.78 0 0 1-2.147 1.684c-.705.477-1.426.885-2.175 1.221-.749.323-1.541.576-2.391.744-.836.169-1.772.253-2.81.253-1.21 0-2.333-.154-3.37-.477-1.023-.323-1.916-.8-2.65-1.446a6.69 6.69 0 0 1-1.73-2.386c-.417-.955-.619-2.064-.619-3.313 0-1.067.288-2.105.85-3.144.576-1.039 1.513-1.965 2.852-2.794 1.326-.828 3.098-1.516 5.302-2.063 2.204-.547 4.94-.828 8.21-.828v-1.656c0-1.895-.402-3.3-1.224-4.197-.806-.913-2.002-1.362-3.543-1.362-1.124 0-2.06.126-2.81.379-.749.253-1.397.547-1.944.856-.548.323-1.066.604-1.527.856-.461.253-.98.38-1.542.38-.46 0-.864-.113-1.21-.351a2.754 2.754 0 0 1-.807-.87l-1.267-2.162c3.313-2.948 7.303-4.422 11.97-4.422 1.686 0 3.185.267 4.496.8a9.704 9.704 0 0 1 3.356 2.246c.922.954 1.614 2.106 2.089 3.425.475 1.32.72 2.793.72 4.38v17.686H183Zm-13.47-4.211c.706 0 1.37-.056 1.96-.183a7.52 7.52 0 0 0 1.7-.561 9.118 9.118 0 0 0 1.541-.927c.49-.365.994-.8 1.498-1.305v-4.688c-2.017 0-3.702.126-5.056.365-1.354.252-2.45.561-3.27.954-.821.393-1.412.842-1.758 1.348a2.949 2.949 0 0 0-.518 1.684c0 1.193.36 2.05 1.08 2.555.72.505 1.657.758 2.824.758Z"/></g><path id="Path" fill="#F8BD2B" d="M72.58 99.39h28.85c.52 0 .94-.42.94-.94V84.97c0-.17-.04-.33-.13-.48L87.76 59.87a.938.938 0 0 0-1.62 0L71.76 84.5c-.08.14-.13.31-.13.47v13.48c.01.52.43.94.95.94Z"/><path id="Path" fill="#80C2E0" d="M13.98 111.06c-.63.87-2 .48-2.08-.59C9.66 80.18-3.86 24.5 52.15 2.96c53.22-20.47-24.83 89.65-38.17 108.1Z"/><path id="Path" fill="#2293B1" d="M108.29 27.83c-.48-.96.49-2 1.48-1.58 27.93 11.93 83.6 25.48 77.01 85.14-6.26 56.68-68.23-63.23-78.49-83.56Z"/><path id="Path" fill="#022B3C" d="M119.7 128.97c1.07-.03 1.61 1.29.81 2.01-22.6 20.29-58.38 65.04-109.69 33.89-48.73-29.6 86.13-35.18 108.88-35.9Z"/></g></g></svg>