<?xml version="1.0" encoding="UTF-8"?>
<svg width="155px" height="31px" viewBox="0 0 155 31" version="1.1" xmlns="http://www.w3.org/2000/svg" xmlns:xlink="http://www.w3.org/1999/xlink">
    <title>Medicom-logo</title>
    <g id="Symbols" stroke="none" stroke-width="1" fill="none" fill-rule="evenodd">
        <g id="Menu" transform="translate(-150.000000, -54.000000)">
            <g id="Medicom-logo">
                <g>
                    <g>
                        <g transform="translate(0.000000, 35.000000)">
                            <g transform="translate(150.000000, 19.000000)">
                                <path d="M89.1429777,21.5121405 C88.6650777,22.2843404 87.5251378,23.0101004 86.2188779,23.0101004 C83.5669381,23.0101004 82.8751981,20.8884405 82.8751981,17.4184008 C82.8751981,13.637861 83.8995781,11.9017612 86.1351779,11.9017612 C87.3177778,11.9017612 88.3453978,12.4115211 89.1429777,13.2447411 L89.1429777,21.5121405 Z M92.8770774,25.6215402 C92.8014774,25.4644002 92.5514575,24.9341202 92.5514575,23.9713003 L92.5514575,4.03558171 L89.9416376,4.03558171 C89.4464577,4.03558171 89.1429777,4.43248169 89.1429777,4.80940166 L89.1429777,8.19466142 L89.1429777,10.5744413 C88.1531578,9.57976132 87.0607378,9.17692135 85.6869779,9.17692135 C81.7914182,9.17692135 78.9828784,12.5233011 78.9828784,17.4518808 C78.9828784,22.3448204 81.4733582,25.6469202 85.591398,25.6469202 C87.1611778,25.6469202 88.4641978,25.3736802 89.4842577,24.3611803 L89.6257377,25.1080002 C89.6700177,25.3385802 89.8860177,25.6469202 90.2893976,25.6469202 L92.8646574,25.6469202 C92.8705974,25.6469202 92.8754574,25.6436802 92.8792374,25.6377402 C92.8824774,25.6328802 92.8792374,25.6247802 92.8770774,25.6215402 L92.8770774,25.6215402 Z" id="Fill-1" fill="#00539B"></path>
                                <path d="M150.704539,13.764923 C150.704539,10.5108833 149.143939,9.17708335 146.492,9.17708335 C144.76778,9.17708335 143.23364,9.9239033 141.67196,11.4699232 C140.4926,9.64256332 139.24412,9.17708335 137.80934,9.17708335 C136.30706,9.17708335 134.307441,10.1031833 133.530921,11.1599632 L133.530921,9.9498233 C133.530921,9.56588332 133.206921,9.17708335 132.736041,9.17708335 L130.317381,9.17708335 L130.317381,13.982543 L130.317381,25.6476222 L133.755021,25.6476222 L133.755021,13.609943 C134.93654,12.5558631 136.08458,11.9051632 137.07494,11.9051632 C138.4136,11.9051632 138.82886,12.6471231 138.82886,14.475023 L138.82886,25.6476222 L142.18496,25.6476222 L142.18496,13.827023 C143.29952,12.8021031 144.41624,11.9051632 145.59776,11.9051632 C146.84516,11.9051632 147.25988,12.5558631 147.25988,14.383763 L147.26852,25.1724222 C147.26852,25.4926422 147.56174,25.6476222 147.7556,25.6476222 L151.017199,25.6476222 C151.022599,25.6476222 151.027459,25.6443822 151.031779,25.6379022 C151.035559,25.6335822 151.030699,25.6254822 151.029079,25.6222422 C150.952939,25.4634822 150.704539,24.9332022 150.704539,23.9714623 L150.704539,13.764923 Z" id="Fill-3" fill="#00539B"></path>
                                <path d="M120.999789,23.0377484 C118.76419,23.0377484 117.74629,21.1391085 117.74629,17.3288688 C117.74629,12.7750491 118.93051,11.9051092 121.037589,11.9051092 C123.109569,11.9051092 124.259769,13.3922691 124.259769,17.3288688 C124.259769,21.7601085 123.038829,23.0377484 120.999789,23.0377484 M120.973329,9.17702935 C116.60095,9.17702935 113.85235,12.3668091 113.85235,17.3882688 C113.85235,22.4075684 116.62957,25.6313682 120.909069,25.6313682 C125.503389,25.6313682 128.124009,22.3163084 128.124009,17.3574888 C128.124009,12.3063291 125.348949,9.17702935 120.973329,9.17702935" id="Fill-5" fill="#00539B"></path>
                                <path d="M98.1014691,9.17837935 L95.3571893,9.17837935 L95.3571893,25.6472982 L98.897429,25.6472982 L98.897429,9.9457193 C98.897429,9.54773933 98.556149,9.17837935 98.1014691,9.17837935" id="Fill-7" fill="#00539B"></path>
                                <path d="M152.420497,10.4450573 L152.674297,10.4450573 C152.896777,10.4450573 153.110617,10.4337173 153.110617,10.1793773 C153.110617,9.9606773 152.914597,9.9363773 152.746657,9.9363773 L152.420497,9.9363773 L152.420497,10.4450573 Z M152.173717,9.73981731 L152.788237,9.73981731 C153.173797,9.73981731 153.357937,9.8883173 153.357937,10.1907173 C153.357937,10.4785373 153.170557,10.5984173 152.926477,10.6243372 L153.396277,11.3225572 L153.128977,11.3225572 L152.685637,10.6416172 L152.420497,10.6416172 L152.420497,11.3225572 L152.173717,11.3225572 L152.173717,9.73981731 Z M152.705617,11.6908372 C153.343357,11.6908372 153.852037,11.1886372 153.852037,10.5330773 C153.852037,9.8791373 153.343357,9.37531734 152.705617,9.37531734 C152.063017,9.37531734 151.559197,9.8791373 151.559197,10.5330773 C151.559197,11.1886372 152.063017,11.6908372 152.705617,11.6908372 L152.705617,11.6908372 Z M152.705617,9.17821735 C153.463777,9.17821735 154.100437,9.76033731 154.100437,10.5330773 C154.100437,11.3036572 153.463777,11.8857772 152.705617,11.8857772 C151.944757,11.8857772 151.310257,11.3036572 151.310257,10.5330773 C151.310257,9.76033731 151.944757,9.17821735 152.705617,9.17821735 L152.705617,9.17821735 Z" id="Fill-9" fill="#00539B"></path>
                                <path d="M70.238227,11.9050012 C71.9926869,11.9050012 73.1439668,13.2674211 73.1439668,15.8086609 L67.1758873,15.8086609 C67.3076472,13.525001 68.1181872,11.9050012 70.238227,11.9050012 L70.238227,11.9050012 Z M75.3363667,21.2691405 C74.0484668,22.1855204 72.5494269,23.0236004 70.643767,23.0236004 C68.1068472,23.0236004 67.1758873,20.4904606 67.1758873,18.3202007 L76.7814066,18.3202007 L76.7814066,17.6074008 C76.7814066,13.950521 76.0777866,12.0265012 74.6710867,10.7904412 C73.3005668,9.57976132 71.8344669,9.17692135 70.238227,9.17692135 C68.3881872,9.17692135 66.5700073,9.80710131 65.2896674,11.2845412 C63.9866475,12.7927611 63.2765475,14.663321 63.2765475,17.4216408 C63.2765475,22.4414804 66.1515073,25.6328802 70.719367,25.6328802 C72.8869269,25.6328802 75.5113267,24.6927403 76.9131666,23.2342004 L76.9018266,23.2136804 L75.3363667,21.2691405 Z" id="Fill-11" fill="#00539B"></path>
                                <path d="M54.6114381,4.62790767 C54.6972981,4.2985077 54.9883581,4.03606771 55.3841781,4.03606771 L59.3445378,4.03606771 L61.4991377,25.6474062 L58.2094579,25.6474062 C58.2094579,25.6474062 56.682338,9.9447473 56.682338,9.29404734 C56.534378,10.0057673 52.0664183,25.6474062 52.0664183,25.6474062 L48.9117385,25.6474062 C48.9117385,25.6474062 44.4443189,10.0057673 44.2947389,9.29404734 C44.2947389,9.9447473 42.767079,25.6474062 42.767079,25.6474062 L39.4779392,25.6474062 L41.6341591,4.03606771 L45.5928988,4.03606771 C45.9892588,4.03606771 46.2792387,4.2985077 46.3667187,4.62790767 L50.4901584,20.3068066 L54.6114381,4.62790767 Z" id="Fill-13" fill="#00539B"></path>
                                <path d="M111.565072,21.5242905 C110.527192,22.5157304 109.461232,23.0276504 108.362332,23.0276504 C107.496172,23.0276504 106.729912,22.6901504 106.221232,22.1301704 C105.487913,21.3563505 105.135293,19.9944706 105.135293,17.8528307 C105.135293,15.9034309 105.326453,14.445431 105.804353,13.484231 C106.317892,12.4625511 107.242372,11.9031112 108.362332,11.9031112 C109.287892,11.9031112 110.116792,12.2757111 111.072052,13.1116311 C111.072052,13.1116311 111.075832,13.1067711 111.081772,13.1002911 L112.999312,10.7178112 C111.571552,9.42937133 110.110312,9.17449135 108.362332,9.17449135 C104.751893,9.17449135 101.241353,11.8723312 101.241353,17.5747308 C101.241353,22.6264304 103.701053,25.6320702 108.102052,25.6320702 C110.275012,25.6320702 111.838312,25.1115102 113.304412,23.6864503 L111.565072,21.5242905 Z" id="Fill-15" fill="#00539B"></path>
                                <path d="M98.897753,5.75380759 C98.897753,6.70366753 98.1071931,7.47316747 97.1287131,7.47316747 C96.1502332,7.47316747 95.3575133,6.70366753 95.3575133,5.75380759 C95.3575133,4.80394766 96.1502332,4.03660771 97.1287131,4.03660771 C98.1071931,4.03660771 98.897753,4.80394766 98.897753,5.75380759" id="Fill-17" fill="#00539B"></path>
                                <path d="M15.0063289,19.0853267 C14.457689,19.5524266 13.0709691,20.6588865 10.5470093,21.1146465 C8.70884938,21.4440465 6.40736955,21.1870065 4.11776971,19.0869467 C1.01438993,16.2422269 -2.16026985,6.59998753 3.09176978,3.80926773 C6.14708957,2.18764785 12.4251291,0.291707979 12.4251291,0.291707979 C12.4251291,0.291707979 15.2817289,-0.539891962 17.6798688,0.758807946 C17.6798688,0.758807946 17.7376487,0.790667944 17.7403487,0.826847942 C17.7441287,0.883007938 17.7079487,0.876527938 17.7079487,0.876527938 C17.1609288,0.757187947 15.9880489,0.614627957 14.650469,1.19512792 C12.8339091,1.98352786 11.9504692,2.8788478 11.1253492,4.2601677 C9.65762932,6.72472752 9.65600932,10.0732673 10.7084692,12.8380671 C11.5487092,15.0509869 13.1006691,17.3681268 14.9885089,18.9076667 C14.9885089,18.9076667 15.0770689,18.9638267 15.0786889,19.0005467 C15.0786889,19.0178267 15.0063289,19.0853267 15.0063289,19.0853267" id="Fill-19" fill="#009CDB"></path>
                                <path d="M20.4806866,11.8925812 C21.1708065,12.1193811 22.8529064,12.7306611 24.5193463,14.626601 C25.7343462,16.0068409 26.6566661,18.0696407 25.9265862,21.0455805 C24.9400062,25.0756002 17.9259467,32.5653997 12.8110671,29.5462599 C9.83404731,27.78748 5.00428765,23.4583003 5.00428765,23.4583003 C5.00428765,23.4583003 2.8345678,21.4743405 2.79513356,18.8067407 C2.79513356,18.8067407 2.7935278,18.7430207 2.8248478,18.7219607 C2.8745278,18.6917207 2.8874878,18.7235807 2.8874878,18.7235807 C3.05218778,19.2452206 3.51334775,20.3020006 4.69918767,21.1352205 C6.30892755,22.2686804 7.55092747,22.5646004 9.19522735,22.5678404 C12.1268871,22.5694604 15.1168669,20.8949205 17.0554668,18.6296207 C18.6106667,16.8163008 19.9007266,14.351741 20.3327266,11.9946412 C20.3327266,11.9946412 20.3370466,11.8925812 20.3705266,11.8731412 C20.3851066,11.8639612 20.4806866,11.8925812 20.4806866,11.8925812" id="Fill-21" fill="#00539B"></path>
                                <path d="M11.3281192,10.8682552 C11.1844792,10.1727353 10.8896392,8.4533754 11.7460792,6.10437557 C12.3724791,4.39365569 13.751099,2.58681582 16.7707788,1.71201588 C20.8591185,0.527255963 31.0483778,2.67915581 30.9128378,8.4890154 C30.8318378,11.8694152 29.3840979,18.0961547 29.3840979,18.0961547 C29.3840979,18.0961547 28.698838,20.9106345 26.3401181,22.2773744 C26.3401181,22.2773744 26.2839581,22.3108544 26.2493981,22.2951944 C26.1964781,22.2692744 26.2213181,22.2411944 26.2213181,22.2411944 C26.6014781,21.8426745 27.3148181,20.9262945 27.4649381,19.5125746 C27.671218,17.5923348 27.3137381,16.4010948 26.4945581,15.0181549 C25.0300782,12.5519751 22.0422584,10.8763552 19.0506587,10.3773953 C16.6552188,9.9777953 13.812659,10.1246753 11.4960592,10.9416952 C11.4960592,10.9416952 11.4004792,10.9881352 11.3659192,10.9692352 C11.3513392,10.9627552 11.3281192,10.8682552 11.3281192,10.8682552" id="Fill-23" fill="#1EBDC9"></path>
                            </g>
                        </g>
                    </g>
                </g>
            </g>
        </g>
    </g>
</svg>