<?xml version="1.0" encoding="UTF-8"?>
<!-- Generator: visioncortex VTracer 0.6.12 -->
<svg version="1.1" xmlns="http://www.w3.org/2000/svg" width="1377" height="295">
<path d="M0 0 C0.706 -0.001 1.412 -0.001 2.14 -0.002 C13.84 0.016 25.184 0.649 36.625 3.25 C37.357 3.416 38.088 3.583 38.842 3.754 C60.633 8.957 81.593 20.363 93.938 39.562 C99.144 48.492 102.977 58.019 104.625 68.25 C104.736 68.918 104.847 69.585 104.961 70.273 C106.7 82.919 106.709 97.999 102.625 110.25 C42.565 110.58 -17.495 110.91 -79.375 111.25 C-73.638 129.896 -66.499 140.754 -49.453 149.801 C-11.299 166.823 43.648 162.555 81.977 148.75 C84.121 147.913 86.255 147.048 88.367 146.133 C90.625 145.25 90.625 145.25 93.625 145.25 C93.625 156.14 93.625 167.03 93.625 178.25 C67.035 186.981 41.052 191.822 12.963 191.641 C9.993 191.625 7.025 191.641 4.055 191.66 C-30.903 191.699 -66.686 184.347 -92.551 159.23 C-106.993 144.475 -114.639 123.735 -115.375 103.25 C-115.415 102.198 -115.455 101.146 -115.496 100.062 C-116.011 72.923 -107.836 49.26 -89 29.562 C-65.351 6.637 -31.8 0.027 0 0 Z M-59.375 47.25 C-60.427 47.993 -61.479 48.735 -62.562 49.5 C-71.594 58.331 -77.301 68.805 -79.375 81.25 C-29.875 81.25 19.625 81.25 70.625 81.25 C70.625 65.875 68.895 58.163 58.918 47.41 C41.913 31.049 14.936 30.838 -7.066 31.039 C-26.141 31.435 -43.774 35.921 -59.375 47.25 Z " fill="#5C2D82" transform="translate(931.375,103.75)"/>
<path d="M0 0 C0.318 0.107 0.318 0.107 1.927 0.651 C25.623 8.812 44.762 24.576 56.116 47.082 C58.767 52.833 60.438 58.88 62 65 C62.123 65.48 62.123 65.48 62.746 67.906 C67.596 91.186 63.371 116.922 50.945 137.121 C34.974 160.757 11.152 173.413 -16 180 C-16.656 180.165 -17.312 180.33 -17.987 180.5 C-40.535 185.895 -69.547 185.73 -92 180 C-92.402 179.901 -92.402 179.901 -94.438 179.398 C-106.394 176.361 -117.272 172.074 -128 166 C-128.497 165.723 -128.497 165.723 -131.012 164.32 C-151.007 152.397 -164.267 133.51 -170.273 111.156 C-175.868 86.855 -172.641 60.512 -160 39 C-144.985 15.285 -120.102 1.732 -93.363 -4.48 C-62.884 -11.188 -29.557 -10.24 0 0 Z M-124.227 48.348 C-133.756 59.609 -138.986 74.668 -138.277 89.551 C-136.223 107.691 -130.716 121.895 -116.473 134.18 C-98.936 147.828 -76.756 151.231 -55.125 151.25 C-54.431 151.251 -53.737 151.251 -53.022 151.252 C-28.495 151.214 -3.738 146.272 14.559 128.668 C25.257 116.977 30.42 101.89 29.979 86.117 C29.224 71.14 24.201 55.495 13 45 C-21.729 14.53 -91.845 14.205 -124.227 48.348 Z " fill="#5734A1" transform="translate(1236,112)"/>
<path d="M0 0 C11.55 0 23.1 0 35 0 C35 52.14 35 104.28 35 158 C53.48 157.67 71.96 157.34 91 157 C105.045 141.874 105.045 141.874 109.262 136.988 C111.473 134.459 113.736 131.981 116 129.5 C118.845 126.381 121.672 123.252 124.438 120.062 C127.399 116.653 130.442 113.322 133.5 110 C137.135 106.051 140.725 102.07 144.238 98.012 C147.139 94.699 150.115 91.453 153.082 88.199 C155 86 155 86 157 83 C158.873 82.639 158.873 82.639 161.174 82.659 C162.035 82.66 162.896 82.66 163.783 82.66 C164.713 82.676 165.643 82.691 166.602 82.707 C167.077 82.709 167.077 82.709 169.485 82.72 C172.532 82.737 175.578 82.774 178.625 82.812 C180.687 82.828 182.75 82.841 184.812 82.854 C189.875 82.887 194.938 82.938 200 83 C198.011 86.407 196.114 89.092 193.25 91.812 C189.907 95 186.893 98.389 183.869 101.875 C180.87 105.285 177.746 108.576 174.625 111.875 C169.806 116.99 165.043 122.143 160.363 127.387 C156.724 131.411 153.007 135.364 149.299 139.326 C144.728 144.212 140.192 149.129 135.68 154.07 C133.774 156.154 131.863 158.232 129.945 160.305 C129.442 160.85 128.939 161.395 128.421 161.956 C127.458 162.999 126.493 164.041 125.527 165.081 C123.468 167.314 121.69 169.464 120 172 C127.345 179.962 134.717 187.868 142.471 195.434 C145.236 198.152 147.848 200.941 150.379 203.879 C154.055 208.129 157.99 212.067 162 216 C166.608 220.52 171.01 225.109 175.223 230 C178.324 233.49 181.668 236.732 185 240 C189.671 244.581 194.142 249.233 198.411 254.192 C201.187 257.35 204.244 260.21 207.277 263.117 C209 265 209 265 209 267 C173.625 272.601 173.625 272.601 160.739 263.792 C150.352 255.634 141.818 245.298 133.624 235.009 C128.872 229.132 123.783 223.641 118.402 218.34 C117.805 217.746 117.208 217.153 116.592 216.541 C114.71 214.671 112.824 212.804 110.938 210.938 C108.444 208.47 105.953 206 103.465 203.527 C102.905 202.976 102.346 202.425 101.769 201.857 C101.232 201.323 100.694 200.788 100.14 200.238 C99.607 199.715 99.074 199.193 98.525 198.654 C97 197 97 197 95.715 195.069 C93.559 191.925 92.106 190.263 88.315 189.361 C84.913 189.093 81.577 189.057 78.164 189.098 C76.93 189.085 75.695 189.073 74.423 189.06 C70.49 189.029 66.558 189.045 62.625 189.062 C59.954 189.053 57.284 189.033 54.613 189.014 C48.075 188.973 41.538 188.971 35 189 C35.002 189.962 35.004 190.925 35.007 191.916 C35.027 200.967 35.042 210.017 35.052 219.067 C35.057 223.72 35.064 228.373 35.075 233.027 C35.086 237.513 35.092 242 35.095 246.487 C35.097 248.203 35.1 249.918 35.106 251.634 C35.113 254.029 35.114 256.423 35.114 258.818 C35.117 259.535 35.121 260.251 35.124 260.989 C35.114 265.886 35.114 265.886 34 267 C22.78 267 11.56 267 0 267 C0 178.89 0 90.78 0 0 Z " fill="#61265E" transform="translate(514,24)"/>
<path d="M0 0 C0.801 0.605 1.601 1.209 2.426 1.832 C16.173 13.11 24.372 30.409 26.79 47.822 C27.232 52.411 27.129 57.021 27.114 61.627 C27.114 62.779 27.114 63.931 27.114 65.117 C27.113 68.91 27.106 72.703 27.098 76.496 C27.096 79.132 27.094 81.767 27.093 84.403 C27.09 90.622 27.082 96.84 27.072 103.059 C27.061 110.143 27.055 117.226 27.05 124.31 C27.04 138.873 27.022 153.437 27 168 C15.78 168 4.56 168 -7 168 C-7.126 163.026 -7.25 158.052 -7.37 153.077 C-7.415 151.189 -7.461 149.301 -7.507 147.413 C-7.822 134.494 -8.041 121.576 -8.162 108.653 C-8.184 106.359 -8.207 104.065 -8.232 101.771 C-8.24 101.012 -8.248 100.253 -8.257 99.472 C-8.273 97.938 -8.29 96.404 -8.306 94.87 C-8.355 90.321 -8.39 85.773 -8.416 81.224 C-8.436 78.334 -8.468 75.445 -8.503 72.556 C-8.523 70.572 -8.528 68.587 -8.533 66.603 C-8.729 52.185 -11.924 38.602 -21.996 27.812 C-35.049 16.006 -52.836 13.6 -69.75 13.688 C-70.318 13.69 -70.318 13.69 -73.19 13.702 C-95.821 14.016 -117.444 21.033 -134 37 C-141.288 45.298 -150.061 56.79 -150.158 68.309 C-150.163 68.749 -150.163 68.749 -150.188 70.973 C-150.194 71.935 -150.199 72.897 -150.205 73.887 C-150.215 74.902 -150.225 75.917 -150.235 76.963 C-150.267 80.323 -150.292 83.683 -150.316 87.043 C-150.337 89.37 -150.358 91.698 -150.379 94.025 C-150.435 100.156 -150.484 106.286 -150.532 112.416 C-150.582 118.67 -150.638 124.924 -150.693 131.178 C-150.801 143.452 -150.902 155.726 -151 168 C-162.22 168 -173.44 168 -185 168 C-185 115.53 -185 63.06 -185 9 C-190.94 9 -196.88 9 -203 9 C-203 1.08 -203 -6.84 -203 -15 C-192.77 -15 -182.54 -15 -172 -15 C-172 -8.07 -172 -1.14 -172 6 C-166.06 6 -160.12 6 -154 6 C-153.835 8.145 -153.835 8.145 -153 19 C-151.886 17.371 -150.773 15.741 -149.625 14.062 C-134.875 -6.095 -112.426 -13.704 -88.684 -17.535 C-58.219 -21.38 -25.201 -19.092 0 0 Z " fill="#691A24" transform="translate(203,122)"/>
<path d="M0 0 C11.55 0 23.1 0 35 0 C35.009 3.506 35.019 7.013 35.028 10.626 C35.062 22.245 35.118 33.863 35.184 45.482 C35.224 52.523 35.256 59.563 35.271 66.604 C35.285 73.406 35.321 80.207 35.368 87.009 C35.383 89.597 35.391 92.185 35.392 94.772 C35.414 128.342 35.414 128.342 47 141 C62.156 154.854 83.896 155.857 103.378 155.152 C127.268 153.764 150.67 144.394 169 129 C169.746 128.4 170.491 127.8 171.26 127.182 C175.686 123.272 178.524 120.385 179.12 114.362 C179.164 112.229 179.159 110.095 179.114 107.963 C179.125 106.791 179.136 105.619 179.147 104.412 C179.173 100.564 179.136 96.719 179.098 92.871 C179.103 90.193 179.112 87.516 179.126 84.838 C179.151 78.527 179.131 72.217 179.094 65.906 C179.053 58.716 179.064 51.526 179.08 44.336 C179.11 29.557 179.069 14.779 179 0 C190.22 0 201.44 0 213 0 C213 60.72 213 121.44 213 184 C202.77 184 192.54 184 182 184 C181.67 174.76 181.34 165.52 181 156 C179.515 157.299 178.03 158.599 176.5 159.938 C152.875 179.226 122.33 187.475 92.25 187.312 C91.899 187.312 91.899 187.312 90.12 187.307 C63.578 187.191 38.443 180.936 18.852 161.914 C4.022 146.175 -0.37 126.755 -0.227 105.692 C-0.227 104.539 -0.228 103.386 -0.228 102.199 C-0.227 98.438 -0.211 94.678 -0.195 90.918 C-0.192 88.291 -0.189 85.664 -0.187 83.037 C-0.181 76.861 -0.164 70.685 -0.144 64.509 C-0.122 57.469 -0.111 50.428 -0.101 43.388 C-0.08 28.926 -0.043 14.463 0 0 Z " fill="#652042" transform="translate(265,107)"/>
<path d="M0 0 C11.55 0 23.1 0 35 0 C35 88.11 35 176.22 35 267 C23.78 267 12.56 267 1 267 C0 266 0 266 -0.124 264.17 C-0.124 263.363 -0.123 262.555 -0.123 261.723 C-0.125 260.794 -0.127 259.866 -0.129 258.909 C-0.126 257.877 -0.123 256.845 -0.12 255.781 C-0.121 254.694 -0.122 253.607 -0.123 252.487 C-0.125 248.814 -0.119 245.141 -0.114 241.469 C-0.113 238.848 -0.113 236.227 -0.114 233.606 C-0.114 227.948 -0.111 222.29 -0.106 216.632 C-0.098 208.452 -0.095 200.271 -0.094 192.09 C-0.092 178.819 -0.085 165.548 -0.075 152.277 C-0.066 139.382 -0.059 126.487 -0.055 113.593 C-0.055 112.798 -0.054 112.004 -0.054 111.186 C-0.053 107.201 -0.052 103.217 -0.05 99.232 C-0.04 66.155 -0.022 33.077 0 0 Z " fill="#5E296E" transform="translate(750,24)"/>
<path d="M0 0 C4.398 2.748 8.634 6.278 10.312 11.312 C10.438 14.562 10.438 14.562 10.312 17.312 C6.682 17.312 3.053 17.312 -0.688 17.312 C-1.121 16.364 -1.554 15.415 -2 14.438 C-3.688 11.312 -3.688 11.312 -6.688 9.312 C-11.49 8.74 -16.114 8.755 -20.688 10.375 C-25.016 14.569 -26.062 19.763 -26.155 25.568 C-26.15 25.928 -26.15 25.928 -26.125 27.75 C-26.119 28.498 -26.113 29.245 -26.106 30.016 C-25.945 35.716 -25.131 39.626 -21.688 44.312 C-17.292 47.124 -12.73 46.812 -7.688 46.312 C-4.75 45.312 -4.75 45.312 -2.688 43.312 C-1.407 40.674 -0.565 38.13 0.312 35.312 C-4.638 35.312 -9.587 35.312 -14.688 35.312 C-14.688 32.343 -14.688 29.372 -14.688 26.312 C-6.108 26.312 2.472 26.312 11.312 26.312 C11.312 36.212 11.312 46.112 11.312 56.312 C8.343 56.312 5.373 56.312 2.312 56.312 C2.312 54.992 2.312 53.672 2.312 52.312 C2.075 52.493 2.075 52.493 0.871 53.406 C-6.284 58.15 -13.297 58.555 -21.688 57.312 C-27.976 55.07 -32.618 51.409 -35.793 45.508 C-39.841 35.574 -40.07 23.477 -36.688 13.312 C-33.54 6.997 -29.696 2.94 -23.688 -0.688 C-16.922 -2.943 -6.477 -3.089 0 0 Z " fill="#6B1716" transform="translate(41.6875,1.6875)"/>
<path d="M0 0 C4.95 -0.083 9.9 -0.165 15 -0.25 C15.773 -0.268 15.773 -0.268 19.684 -0.36 C28.042 -0.428 34.438 -0.267 40.875 5.754 C44.388 11.401 44.905 16.44 44 23 C42.237 28.288 39.322 30.735 35 34 C37.458 41.919 40.668 49.42 44 57 C39.71 57 35.42 57 31 57 C29.662 53.877 28.33 50.752 27 47.625 C26.618 46.736 26.237 45.846 25.844 44.93 C25.663 44.504 25.663 44.504 24.75 42.352 C24.415 41.566 24.08 40.781 23.734 39.971 C23 38 23 38 23 36 C19.04 36 15.08 36 11 36 C11 42.93 11 49.86 11 57 C7.37 57 3.74 57 0 57 C0 38.19 0 19.38 0 0 Z M11 10 C11 15.28 11 20.56 11 26 C13.351 26.062 15.703 26.124 18.125 26.188 C18.853 26.215 19.582 26.242 20.333 26.27 C24.985 26.329 28.072 25.466 32 23 C33.444 20.111 33.377 18.204 33 15 C30.993 12.274 29.43 10.285 25.995 9.6 C23.706 9.508 21.474 9.563 19.188 9.688 C18.399 9.71 17.611 9.733 16.799 9.756 C14.865 9.814 12.932 9.904 11 10 Z " fill="#6B1716" transform="translate(65,1)"/>
<path d="M0 0 C5.801 3.417 9.322 7.871 11.57 14.176 C12.581 18.633 12.822 22.757 12.812 27.312 C12.812 27.732 12.812 27.732 12.808 29.854 C12.639 38.351 10.716 45.901 4.438 52 C-3.698 57.375 -11.05 57.88 -20.562 57 C-26.858 55.445 -31.016 51.287 -34.562 46 C-39.564 36.837 -40.09 25.526 -37.312 15.562 C-34.722 8.115 -30.472 2.438 -23.32 -1.113 C-16.053 -3.45 -6.961 -3.142 0 0 Z M-23.562 12 C-26.825 17.121 -27.081 21.489 -27.062 27.375 C-27.091 28.187 -27.119 28.999 -27.148 29.836 C-27.168 35.908 -25.712 40.454 -21.562 45 C-17.297 47.52 -13.416 47.573 -8.562 47 C-5.688 45.687 -5.688 45.687 -3.562 44 C-3.284 43.794 -3.284 43.794 -1.875 42.75 C2.678 36.679 2.014 28.179 1.438 21 C0.37 16.059 -1.513 12.164 -5.562 9 C-12.3 6.754 -18.15 7.103 -23.562 12 Z " fill="#6B1716" transform="translate(155.5625,2)"/>
<path d="M0 0 C13.2 0 26.4 0 40 0 C40 3.3 40 6.6 40 10 C30.43 10 20.86 10 11 10 C11 13.96 11 17.92 11 22 C19.25 22 27.5 22 36 22 C36 25.3 36 28.6 36 32 C27.75 32 19.5 32 11 32 C11 36.95 11 41.9 11 47 C20.57 47 30.14 47 40 47 C40 50.3 40 53.6 40 57 C26.8 57 13.6 57 0 57 C0 38.19 0 19.38 0 0 Z " fill="#6B1716" transform="translate(291,1)"/>
<path d="M0 0 C3.63 0 7.26 0 11 0 C11.015 1.186 11.029 2.371 11.044 3.593 C11.102 8 11.179 12.408 11.262 16.815 C11.296 18.721 11.324 20.627 11.346 22.533 C11.38 25.276 11.432 28.019 11.488 30.762 C11.495 31.611 11.501 32.46 11.508 33.335 C11.623 38.018 11.941 41.217 15 45 C18.11 47.073 18.891 47.274 22.438 47.25 C23.199 47.255 23.961 47.26 24.746 47.266 C27.314 46.963 28.852 46.441 31 45 C32.696 42.191 33.258 40.044 33.319 36.782 C33.339 35.962 33.359 35.141 33.379 34.296 C33.385 33.858 33.385 33.858 33.414 31.641 C33.433 30.736 33.453 29.832 33.473 28.9 C33.532 26.017 33.579 23.134 33.625 20.25 C33.663 18.293 33.702 16.336 33.742 14.379 C33.838 9.586 33.922 4.793 34 0 C37.63 0 41.26 0 45 0 C45.099 6.12 45.172 12.239 45.22 18.359 C45.24 20.439 45.267 22.518 45.302 24.598 C45.351 27.596 45.373 30.595 45.391 33.594 C45.411 34.515 45.432 35.436 45.453 36.385 C45.456 43.214 44.099 48.861 39.184 53.84 C38.895 54.021 38.895 54.021 37.438 54.938 C36.859 55.318 36.28 55.698 35.684 56.09 C29.525 59.419 20.837 58.797 14 58 C7.93 55.928 3.905 51.563 0.911 45.962 C-0.41 41.667 -0.246 37.573 -0.195 33.105 C-0.192 32.158 -0.19 31.211 -0.187 30.235 C-0.176 27.219 -0.15 24.203 -0.125 21.188 C-0.115 19.139 -0.106 17.09 -0.098 15.041 C-0.076 10.027 -0.041 5.014 0 0 Z " fill="#6B1716" transform="translate(179,1)"/>
<path d="M0 0 C2.393 -0.041 2.393 -0.041 14.5 -0.25 C15.993 -0.286 17.487 -0.323 19.025 -0.36 C27.416 -0.43 33.558 -0.239 39.875 5.789 C43.165 11.157 44.06 15.76 43 22 C41.193 27.876 38.509 31.07 33 34 C30.176 34.941 28.471 35.117 25.551 35.098 C24.787 35.095 24.023 35.093 23.236 35.09 C22.271 35.081 21.306 35.072 20.312 35.062 C18.776 35.052 18.776 35.052 11 35 C11 42.26 11 49.52 11 57 C7.37 57 3.74 57 0 57 C0 38.19 0 19.38 0 0 Z M11 10 C11 14.95 11 19.9 11 25 C13.752 25.135 16.497 25.234 19.25 25.312 C20.027 25.354 20.805 25.396 21.605 25.439 C27.375 25.563 27.375 25.563 30.547 22.707 C32.534 19.005 32.179 16.98 31 13 C28.428 10.175 26.98 9.998 23.109 9.707 C21.656 9.727 20.203 9.762 18.75 9.812 C18.377 9.819 18.377 9.819 16.492 9.854 C14.661 9.889 12.83 9.943 11 10 Z " fill="#6B1716" transform="translate(238,1)"/>
<path d="M0 0 C16.537 -2.059 16.537 -2.059 21.932 1.148 C25.428 4.284 27.984 8.101 30.576 11.989 C32.058 14.083 33.661 15.943 35.391 17.836 C35.952 18.451 36.513 19.065 37.092 19.699 C38.171 20.872 39.256 22.04 40.346 23.204 C42.642 25.798 43.934 27.644 44.574 31.078 C43.852 34.751 42.522 36.441 40.062 39.25 C39.241 40.2 38.42 41.15 37.574 42.129 C36.725 43.076 35.875 44.024 35 45 C34.611 45.438 34.611 45.438 32.645 47.652 C31.143 49.33 29.621 50.989 28.078 52.629 C26 55 26 55 24.547 57.402 C22.836 60.077 21.782 61.411 19 63 C12.718 63.976 6.31 63.454 0 63 C1.419 58.54 3.866 55.672 7.062 52.375 C13.468 45.587 19.44 38.505 25 31 C24.455 30.406 23.909 29.811 23.348 29.199 C18.44 23.805 13.733 18.296 9.152 12.621 C6.6 9.512 3.933 6.523 1.215 3.559 C0 2 0 2 0 0 Z " fill="#5636AA" transform="translate(1333,228)"/>
</svg>
