<?xml version="1.0" encoding="UTF-8"?>
<!-- Generator: visioncortex VTracer 0.6.12 -->
<svg version="1.1" xmlns="http://www.w3.org/2000/svg" width="1459" height="287">
<path d="M0 0 C0.817 0.726 1.635 1.451 2.477 2.199 C16.513 15.366 24.884 33.571 26.271 52.751 C26.364 56.547 26.361 60.328 26.312 64.125 C26.316 65.392 26.319 66.659 26.322 67.965 C26.204 88.796 26.204 88.796 23 92 C20.508 92.098 18.045 92.13 15.553 92.12 C15.158 92.121 15.158 92.121 13.162 92.123 C10.498 92.125 7.834 92.119 5.17 92.114 C3.268 92.113 1.366 92.113 -0.535 92.114 C-5.715 92.114 -10.894 92.108 -16.074 92.101 C-21.48 92.095 -26.887 92.095 -32.293 92.093 C-42.539 92.09 -52.785 92.082 -63.031 92.072 C-74.692 92.061 -86.353 92.055 -98.015 92.05 C-122.01 92.04 -146.005 92.022 -170 92 C-169.075 94.544 -168.143 97.085 -167.207 99.625 C-166.949 100.338 -166.69 101.051 -166.424 101.785 C-160.322 118.271 -149.717 127.025 -134.148 134.34 C-115.19 142.399 -94.177 143.236 -73.875 143.25 C-73.43 143.25 -73.43 143.25 -71.177 143.252 C-44.207 143.22 -19.065 139.161 6.41 130.234 C10 129 10 129 14 128 C14 139.55 14 151.1 14 163 C-13.947 172.85 -41.88 177.574 -71.537 177.391 C-74.632 177.375 -77.726 177.391 -80.82 177.41 C-116.963 177.449 -151.987 170.004 -180 146 C-180.603 145.493 -181.207 144.987 -181.828 144.465 C-197.941 129.745 -205.96 106.73 -207.142 85.436 C-208.192 55.187 -201.524 29.132 -180.53 6.542 C-139.187 -35.118 -44.168 -40.191 0 0 Z M-156.688 32.688 C-163.483 40.469 -169 50.529 -169 61 C-116.53 61 -64.06 61 -10 61 C-10 46.71 -11.422 36.979 -20.605 26.098 C-37.202 9.941 -63.048 7.1 -85.062 6.75 C-111.94 7.18 -137.435 12.702 -156.688 32.688 Z " fill="#000000" transform="translate(1072,110)"/>
<path d="M0 0 C0.75 0.187 1.5 0.374 2.273 0.567 C29.773 7.753 55.091 23.1 69.872 47.948 C78.274 62.986 81.398 79.514 81.375 96.562 C81.375 97.224 81.375 97.886 81.374 98.568 C81.325 113.981 78.732 127.041 72 141 C71.582 141.898 71.165 142.797 70.734 143.723 C59.154 166.85 36.756 181.58 13 190 C12.014 190.367 11.028 190.735 10.012 191.113 C-18.151 200.774 -53.994 201.827 -83 195 C-83.743 194.834 -84.487 194.667 -85.252 194.496 C-113.799 187.946 -139.84 172.869 -156.062 148 C-169.651 125.141 -172.847 96.768 -166.543 71.015 C-162.243 55.071 -154.551 41.866 -143 30 C-142.415 29.364 -141.83 28.729 -141.227 28.074 C-107.886 -7.223 -44.359 -11.072 0 0 Z M-118.441 55.754 C-128.248 68.145 -132.408 81.175 -132.312 96.812 C-132.307 97.783 -132.301 98.754 -132.295 99.753 C-132.008 116.758 -126.115 130.031 -114 142 C-113.698 142.313 -113.698 142.313 -112.172 143.895 C-94.418 160.992 -67.711 164.434 -44.25 164.312 C-43.874 164.311 -43.874 164.311 -41.974 164.306 C-31.048 164.256 -20.59 163.944 -10 161 C-9.264 160.796 -8.529 160.592 -7.771 160.382 C10.916 155.054 27.542 145.925 37.605 128.688 C45.758 112.975 47.36 95.581 43.09 78.402 C37.347 60.474 26.215 48.894 10 40 C-3.168 33.225 -18.987 29.89 -33.742 29.797 C-34.469 29.791 -35.195 29.785 -35.944 29.78 C-37.479 29.77 -39.013 29.764 -40.548 29.76 C-42.834 29.75 -45.12 29.719 -47.406 29.688 C-72.883 29.504 -100.896 35.963 -118.441 55.754 Z " fill="#000000" transform="translate(1296,89)"/>
<path d="M0 0 C11.88 0 23.76 0 36 0 C36 55.44 36 110.88 36 168 C55.8 168 75.6 168 96 168 C96.66 166.68 97.32 165.36 98 164 C99.032 162.758 100.113 161.556 101.23 160.391 C101.869 159.718 102.508 159.045 103.166 158.352 C103.833 157.658 104.5 156.965 105.188 156.25 C109.711 151.515 114.154 146.743 118.444 141.795 C120.393 139.546 122.38 137.334 124.375 135.125 C125.133 134.285 125.891 133.444 126.672 132.578 C128.224 130.859 129.776 129.141 131.328 127.422 C134.704 123.679 138.071 119.932 141.375 116.125 C144.359 112.697 147.422 109.344 150.5 106 C162.399 93.066 162.399 93.066 164.456 89.417 C167.804 86.236 169.831 86.432 174.314 86.434 C174.796 86.446 174.796 86.446 177.234 86.512 C178.228 86.519 179.221 86.526 180.244 86.533 C183.413 86.561 186.581 86.624 189.75 86.688 C191.9 86.713 194.049 86.735 196.199 86.756 C201.467 86.811 206.733 86.895 212 87 C210.585 89.94 209.171 92.104 206.91 94.469 C206.296 95.116 205.682 95.764 205.05 96.431 C204.394 97.114 203.738 97.796 203.062 98.5 C201.693 99.942 200.325 101.385 198.957 102.828 C198.282 103.538 197.608 104.247 196.913 104.979 C194.329 107.709 191.784 110.473 189.25 113.25 C188.377 114.205 187.505 115.16 186.605 116.145 C186.176 116.616 186.176 116.616 184 119 C182.188 120.98 180.376 122.959 178.562 124.938 C178.11 125.431 177.658 125.924 177.192 126.433 C171.305 132.853 165.391 139.248 159.479 145.646 C152.773 152.904 146.081 160.175 139.407 167.463 C136.877 170.227 134.344 172.988 131.812 175.75 C130.882 176.766 129.951 177.781 129.02 178.797 C128.353 179.524 127.687 180.251 127 181 C128.315 183.918 129.716 185.949 132.012 188.172 C132.605 188.755 133.199 189.337 133.811 189.938 C134.12 190.237 134.12 190.237 135.688 191.75 C139.42 195.374 143.061 199.008 146.457 202.953 C150.102 207.183 154.016 211.092 158 215 C162.608 219.52 167.01 224.109 171.223 229 C174.324 232.49 177.668 235.732 181 239 C185.608 243.52 190.01 248.109 194.223 253 C197.324 256.49 200.668 259.732 204 263 C216.52 275.28 216.52 275.28 221 282 C214.602 282.437 208.208 282.731 201.798 282.934 C199.627 283.019 197.456 283.134 195.288 283.282 C176.353 284.545 176.353 284.545 169.358 278.599 C165.824 275.06 162.758 271.2 159.742 267.218 C157.155 263.924 154.225 261.054 151.215 258.152 C150.158 257.106 149.103 256.058 148.049 255.01 C147.012 253.985 145.975 252.961 144.938 251.938 C133.284 240.433 133.284 240.433 129.648 236.148 C124.076 229.618 117.785 223.72 111.688 217.688 C109.147 215.173 106.61 212.656 104.074 210.137 C103.494 209.565 102.914 208.993 102.316 208.404 C99.928 206.03 97.875 203.812 96 201 C93.482 200.601 93.482 200.601 90.265 200.568 C89.047 200.548 87.829 200.528 86.574 200.507 C85.289 200.501 84.004 200.495 82.68 200.488 C81.502 200.472 80.325 200.455 79.112 200.438 C74.7 200.38 70.287 200.348 65.875 200.312 C56.016 200.209 46.158 200.106 36 200 C36 227.06 36 254.12 36 282 C24.12 282 12.24 282 0 282 C0 188.94 0 95.88 0 0 Z " fill="#000000" transform="translate(545,0)"/>
<path d="M0 0 C15.085 14.135 21.418 34.017 22.797 54.105 C22.923 58.164 22.924 62.218 22.91 66.278 C22.911 67.44 22.911 68.603 22.911 69.8 C22.91 73.604 22.902 77.407 22.895 81.211 C22.893 83.863 22.891 86.516 22.89 89.168 C22.887 95.411 22.879 101.655 22.869 107.898 C22.858 115.013 22.852 122.128 22.847 129.243 C22.837 143.864 22.818 158.485 22.797 173.105 C10.587 173.105 -1.623 173.105 -14.203 173.105 C-14.21 171.385 -14.21 171.385 -14.247 162.679 C-14.298 151.272 -14.364 139.865 -14.439 128.457 C-14.484 121.546 -14.523 114.634 -14.55 107.722 C-14.575 101.044 -14.616 94.365 -14.666 87.687 C-14.683 85.147 -14.694 82.608 -14.701 80.068 C-14.801 43.091 -14.801 43.091 -26.203 28.105 C-26.614 27.564 -27.026 27.023 -27.449 26.465 C-35.844 16.783 -49.929 12.001 -62.203 10.105 C-63.017 9.977 -63.83 9.848 -64.668 9.715 C-90.396 6.461 -118.189 11.114 -139.559 26.422 C-151.5 35.851 -160.383 48.644 -165.203 63.105 C-165.303 64.615 -165.349 66.129 -165.361 67.642 C-165.371 68.572 -165.381 69.502 -165.391 70.459 C-165.397 71.477 -165.403 72.495 -165.408 73.544 C-165.418 74.617 -165.428 75.69 -165.438 76.796 C-165.47 80.351 -165.495 83.906 -165.52 87.461 C-165.54 89.923 -165.561 92.385 -165.583 94.847 C-165.638 101.332 -165.687 107.818 -165.735 114.303 C-165.786 120.919 -165.841 127.535 -165.896 134.15 C-166.004 147.135 -166.105 160.12 -166.203 173.105 C-178.083 173.105 -189.963 173.105 -202.203 173.105 C-202.203 117.665 -202.203 62.225 -202.203 5.105 C-208.473 5.105 -214.743 5.105 -221.203 5.105 C-221.203 -3.805 -221.203 -12.715 -221.203 -21.895 C-210.313 -21.895 -199.423 -21.895 -188.203 -21.895 C-188.203 -13.975 -188.203 -6.055 -188.203 2.105 C-181.933 2.105 -175.663 2.105 -169.203 2.105 C-169.038 4.25 -169.038 4.25 -168.203 15.105 C-167.234 13.641 -166.264 12.177 -165.266 10.668 C-150.825 -9.768 -128.004 -18.797 -104.016 -23.082 C-67.5 -28.54 -28.881 -24.836 0 0 Z " fill="#000000" transform="translate(221.203125,108.89453125)"/>
<path d="M0 0 C11.88 0 23.76 0 36 0 C36.01 1.735 36.01 1.735 36.06 10.518 C36.127 22.025 36.205 33.532 36.288 45.039 C36.337 52.012 36.384 58.984 36.422 65.956 C36.459 72.693 36.505 79.43 36.558 86.166 C36.577 88.728 36.592 91.29 36.603 93.852 C36.806 136.655 36.806 136.655 50.555 150.812 C67.543 166.01 91.512 166.054 113 165 C136.833 163.109 159.762 153.368 178 138 C178.804 137.418 179.609 136.836 180.438 136.236 C187.432 130.767 187.432 130.767 188.927 126.119 C189.267 122.756 189.304 119.516 189.227 116.136 C189.233 115.507 189.233 115.507 189.261 112.32 C189.29 108.892 189.259 105.466 189.216 102.039 C189.181 98.447 189.204 94.856 189.22 91.264 C189.242 84.475 189.213 77.687 189.166 70.897 C189.114 63.163 189.12 55.43 189.13 47.695 C189.15 31.796 189.091 15.899 189 0 C201.21 0 213.42 0 226 0 C226 64.35 226 128.7 226 195 C214.78 195 203.56 195 192 195 C192 185.43 192 175.86 192 166 C190.144 167.485 188.288 168.97 186.375 170.5 C179.622 175.761 172.574 180.033 165 184 C163.987 184.534 162.974 185.067 161.93 185.617 C132.843 199.975 95.474 204.023 64 196 C63.32 195.828 62.64 195.657 61.939 195.48 C48.402 191.93 35.512 186.44 25 177 C24.179 176.272 23.358 175.543 22.512 174.793 C8.587 161.714 0.948 143.978 -0.181 124.956 C-0.244 121.636 -0.248 118.322 -0.227 115.001 C-0.227 113.751 -0.228 112.501 -0.228 111.213 C-0.227 107.821 -0.217 104.43 -0.203 101.038 C-0.19 97.48 -0.189 93.922 -0.187 90.364 C-0.181 83.642 -0.164 76.92 -0.144 70.199 C-0.122 62.54 -0.111 54.881 -0.101 47.221 C-0.08 31.481 -0.043 15.74 0 0 Z " fill="#000000" transform="translate(281,87)"/>
<path d="M0 0 C11.88 0 23.76 0 36 0 C36 93.06 36 186.12 36 282 C24.12 282 12.24 282 0 282 C0 188.94 0 95.88 0 0 Z " fill="#000000" transform="translate(795,0)"/>
<path d="M0 0 C19.103 -2.075 19.103 -2.075 24.527 2.285 C26.947 4.741 28.942 7.472 30.859 10.332 C32.665 12.972 34.752 15.369 36.812 17.812 C37.529 18.71 38.246 19.607 38.984 20.531 C41.197 23.241 43.544 25.783 46.004 28.27 C47.567 30.986 47.392 32.924 47 36 C45.348 38.641 45.348 38.641 43.062 41.25 C42.241 42.2 41.42 43.15 40.574 44.129 C39.725 45.076 38.875 46.024 38 47 C37.611 47.438 37.611 47.438 35.645 49.652 C34.153 51.319 32.654 52.979 31.148 54.633 C28.496 57.555 25.902 60.525 23.312 63.504 C22.565 64.357 21.802 65.198 21 66 C19.438 66.087 17.873 66.107 16.309 66.098 C15.364 66.094 14.42 66.091 13.447 66.088 C12.454 66.08 11.461 66.071 10.438 66.062 C9.44 66.058 8.443 66.053 7.416 66.049 C4.944 66.037 2.472 66.021 0 66 C3.928 60.625 8.045 55.501 12.438 50.5 C12.72 50.175 12.72 50.175 14.149 48.528 C16.54 45.778 18.946 43.058 21.434 40.395 C22.074 39.707 22.715 39.02 23.375 38.312 C23.919 37.752 24.463 37.191 25.023 36.613 C26 35 26 35 25.965 33.16 C24.57 30.038 22.428 27.664 20.188 25.125 C19.946 24.845 19.946 24.845 18.725 23.43 C17.157 21.614 15.579 19.807 14 18 C12.342 16.097 10.686 14.192 9.034 12.283 C7.989 11.075 6.94 9.871 5.885 8.67 C3.48 5.896 1.552 3.319 0 0 Z " fill="#000000" transform="translate(1412,216)"/>
</svg>
