<?xml version="1.0" encoding="UTF-8"?>
<!-- Generator: visioncortex VTracer 0.6.12 -->
<svg version="1.1" xmlns="http://www.w3.org/2000/svg" width="1331" height="214">
<path d="M0 0 C92.267 0 92.267 0 106.938 13.188 C115.095 22.197 118.553 33.874 118.312 45.777 C117.193 57.324 112.774 65.969 104.125 73.5 C103.09 74.342 102.051 75.179 101 76 C101.641 76.461 102.281 76.923 102.941 77.398 C111.554 83.893 119.272 91.953 121 103 C122.113 115.278 121.577 127.851 114.312 138.312 C103.175 151.51 90.852 156.128 74 158 C49.58 158 25.16 158 0 158 C0 105.86 0 53.72 0 0 Z M29 25 C29 37.87 29 50.74 29 64 C32.187 64.031 32.187 64.031 48.312 64.188 C50.301 64.215 52.289 64.242 54.337 64.27 C75.536 64.441 75.536 64.441 83 58.688 C87.58 52.534 89.057 47.609 88 40 C86.32 34.724 83.81 30.886 79 28 C72.668 25.294 66.986 24.583 60.152 24.707 C59.255 24.711 58.358 24.716 57.433 24.72 C54.601 24.737 51.77 24.774 48.938 24.812 C47.003 24.828 45.069 24.841 43.135 24.854 C38.423 24.884 33.712 24.943 29 25 Z M29 88 C29 102.19 29 116.38 29 131 C32.455 131.031 32.455 131.031 49.938 131.188 C52.1 131.215 54.263 131.242 56.492 131.27 C58.233 131.279 59.974 131.287 61.715 131.293 C62.597 131.308 63.48 131.324 64.389 131.339 C72.779 131.343 80.446 129.487 87 124 C91.325 118.65 91.613 113.962 91.387 107.164 C90.687 101.442 88.73 97.73 84.688 93.688 C75.852 88.14 67.16 87.833 57.027 87.902 C56.309 87.903 55.591 87.904 54.851 87.905 C52.213 87.911 49.575 87.925 46.938 87.938 C43.978 87.948 43.978 87.948 29 88 Z " fill="#000000" transform="translate(925,3)"/>
<path d="M0 0 C0 7.26 0 14.52 0 22 C-2.734 22.423 -5.469 22.846 -8.203 23.27 C-11.123 24.032 -12.742 25.038 -15 27 C-14.624 29.333 -14.204 31.526 -13.266 33.703 C-9.366 43.049 -9.425 55.406 -12.5 65 C-17.697 76.872 -26.952 84.325 -38.703 89.188 C-50.356 93.31 -62.65 92.904 -74.574 90.145 C-77 90 -77 90 -78.773 91.266 C-80.609 93.861 -80.936 95.84 -81 99 C-79.204 101.556 -77.923 102.739 -74.903 103.592 C-70.989 104.142 -67.131 104.175 -63.184 104.211 C-61.432 104.239 -59.68 104.268 -57.928 104.297 C-55.192 104.338 -52.456 104.375 -49.72 104.401 C-34.29 104.564 -20.156 105.111 -7.965 115.781 C-1.135 122.858 1.195 130.802 1.5 140.5 C1.142 151.222 -1.733 158.957 -9.262 166.707 C-21.976 177.354 -37.933 179.541 -54.014 179.391 C-56.065 179.375 -58.115 179.391 -60.166 179.41 C-76.811 179.437 -90.598 175.896 -102.863 164.344 C-108.87 157.755 -110.334 150.531 -110.207 141.875 C-109.599 133.426 -106.106 127.767 -100 122 C-99.67 121.835 -99.67 121.835 -98 121 C-98.471 120.515 -98.941 120.031 -99.426 119.531 C-104.849 113.692 -107.616 109.032 -108.375 101.062 C-107.982 93.035 -105.127 87.481 -99.621 81.727 C-98 80 -98 80 -96 77 C-96.398 76.455 -96.797 75.909 -97.207 75.348 C-104.642 64.765 -106.963 54.31 -105.375 41.438 C-103.442 30.636 -98.277 21.472 -89.27 15.055 C-76.373 7.08 -61.878 4.622 -46.89 7.39 C-43.152 8.315 -39.589 9.621 -36 11 C-34.673 11.356 -33.341 11.7 -32 12 C-31.587 11.469 -31.175 10.938 -30.75 10.391 C-26.026 4.612 -21.681 1.44 -14.562 -0.75 C-9.601 -1.234 -4.763 -1.588 0 0 Z M-74 36 C-78.287 42.278 -78.979 48.696 -77.609 56.117 C-75.825 61.996 -71.966 65.546 -67 69 C-61.152 70.949 -54.478 70.78 -48.625 68.938 C-43.346 65.041 -39.315 60.573 -38 54 C-37.138 47.022 -38.544 41.12 -42 35 C-45.999 30.067 -51.244 28.494 -57.375 27.688 C-64.262 28.507 -69.548 30.5 -74 36 Z M-81 131 C-83.678 134.509 -84.823 137.582 -85 142 C-83.495 146.594 -81.926 150.107 -78 153 C-65.414 158.547 -50.156 158.293 -37 155 C-32.866 153.227 -29.935 151.081 -27 147.688 C-25.241 142.959 -25.222 138.843 -27.188 134.188 C-32.084 128.278 -38.792 127.77 -46 127 C-50.962 126.699 -55.904 126.63 -60.875 126.625 C-62.154 126.601 -63.433 126.576 -64.75 126.551 C-76.292 126.515 -76.292 126.515 -81 131 Z " fill="#000000" transform="translate(469,35)"/>
<path d="M0 0 C89.222 0 89.222 0 103 10 C103.633 10.44 104.266 10.879 104.918 11.332 C114.219 18.457 119.127 29.695 121 41 C122.042 56.441 118.887 68.789 110.188 81.688 C105.545 86.596 100.157 90.229 94 93 C95.953 99.249 98.294 105.188 101.02 111.137 C101.401 111.979 101.782 112.821 102.174 113.688 C103.383 116.356 104.597 119.022 105.812 121.688 C115.079 142.078 115.079 142.078 118.574 150.145 C119.048 151.237 119.522 152.33 120.01 153.456 C121 156 121 156 121 158 C110.44 158 99.88 158 89 158 C86.261 151.848 83.522 145.696 80.785 139.543 C79.856 137.456 78.927 135.369 77.998 133.282 C76.651 130.259 75.306 127.235 73.961 124.211 C73.554 123.299 73.148 122.387 72.729 121.447 C69.416 113.992 66.215 106.501 63 99 C51.78 98.67 40.56 98.34 29 98 C29 117.8 29 137.6 29 158 C19.43 158 9.86 158 0 158 C0 105.86 0 53.72 0 0 Z M29 26 C29 41.18 29 56.36 29 72 C35.579 72.041 42.159 72.083 48.938 72.125 C50.996 72.143 53.055 72.161 55.176 72.18 C56.834 72.186 58.493 72.191 60.152 72.195 C60.992 72.206 61.831 72.216 62.695 72.226 C72.849 72.229 80.298 70.595 87.75 63.312 C91.624 58.339 92.299 52.456 91.812 46.312 C91.23 42.415 90.077 39.385 88 36 C87.484 35.154 86.969 34.309 86.438 33.438 C81.613 28.613 75.57 25.77 68.734 25.432 C66.882 25.434 65.031 25.46 63.18 25.512 C62.742 25.514 62.742 25.514 60.53 25.527 C57.311 25.553 54.093 25.623 50.875 25.688 C43.656 25.791 36.438 25.894 29 26 Z " fill="#000000" transform="translate(0,3)"/>
<path d="M0 0 C15.985 12.856 23.653 29.426 26.113 49.57 C26.464 53.133 26.512 56.682 26.532 60.259 C26.538 61.051 26.544 61.843 26.549 62.659 C26.559 64.329 26.565 65.998 26.569 67.668 C26.579 70.163 26.61 72.657 26.642 75.152 C26.742 90.394 25.301 104.959 18.329 118.763 C17.922 119.6 17.514 120.436 17.095 121.298 C8.879 136.545 -4.681 145.531 -20.921 150.455 C-26.847 151.992 -32.51 152.224 -38.608 152.138 C-39.665 152.127 -40.722 152.116 -41.811 152.105 C-58.993 151.754 -73.853 145.876 -86.046 133.65 C-105.247 112.535 -105.823 83.187 -104.551 56.218 C-103.281 36.502 -97.456 17.665 -82.671 3.763 C-59.953 -14.979 -24.214 -17.924 0 0 Z M-66.671 28.763 C-78 47.441 -77.633 77.069 -72.671 97.763 C-69.871 108.074 -65.377 115.809 -56.167 121.509 C-46.651 126.29 -37.566 126.772 -27.448 123.802 C-19.309 120.757 -12.461 115.224 -8.487 107.447 C-3.764 96.392 -3.298 85.501 -3.3 73.652 C-3.296 71.164 -3.26 68.677 -3.222 66.189 C-3.123 52.195 -4.356 36.982 -13.671 25.763 C-21.243 18.248 -28.577 15.664 -39.108 15.326 C-50.911 15.632 -58.939 19.754 -66.671 28.763 Z " fill="#000000" transform="translate(728.6708984375,11.23681640625)"/>
<path d="M0 0 C12.258 9.056 18.806 21.875 21.273 36.68 C21.273 44.93 21.273 53.18 21.273 61.68 C-4.137 61.68 -29.547 61.68 -55.727 61.68 C-50.552 81.083 -50.552 81.083 -40.664 87.742 C-34.267 89.899 -25.753 89.905 -19.34 87.953 C-13.599 84.89 -11.072 80.544 -8.727 74.68 C0.183 74.68 9.093 74.68 18.273 74.68 C17.085 85.38 13.432 94.351 5.273 101.68 C-9.024 112.792 -24.188 114.204 -41.727 112.68 C-54.786 110.388 -66.083 102.356 -73.727 91.68 C-85.186 73.469 -87.209 53.036 -82.633 32.305 C-79.544 19.95 -72.913 8.577 -62.727 0.68 C-43.15 -10.929 -19.713 -12.823 0 0 Z M-49.539 22.43 C-54.391 28.389 -55.727 33.005 -55.727 40.68 C-39.557 40.68 -23.387 40.68 -6.727 40.68 C-7.69 32.005 -8.941 24.641 -15.727 18.68 C-26.86 11.258 -40.49 12.892 -49.539 22.43 Z " fill="#000000" transform="translate(1309.7265625,50.3203125)"/>
<path d="M0 0 C10.824 8.018 18.929 20.211 21.105 33.73 C21.182 34.39 21.258 35.05 21.336 35.73 C21.389 36.091 21.389 36.091 21.66 37.918 C22.744 46.028 22.493 53.632 21.336 61.73 C-4.074 61.73 -29.484 61.73 -55.664 61.73 C-52.809 73.149 -50.984 80.129 -41.664 86.73 C-37.478 88.827 -33.881 89.029 -29.227 89.043 C-28.588 89.051 -28.588 89.051 -25.355 89.094 C-19.839 88.551 -16.719 86.833 -12.914 82.855 C-10.664 79.73 -10.664 79.73 -8.664 74.73 C0.576 74.73 9.816 74.73 19.336 74.73 C16.467 87.643 11.072 98.609 -0.289 105.98 C-14.675 113.839 -31.817 115.488 -47.727 111.293 C-62.665 105.72 -72.693 94.992 -79.414 80.746 C-86.509 63.629 -86.772 43.356 -80.414 25.98 C-74.353 11.463 -66.422 2.036 -52.191 -4.859 C-35.323 -11.603 -15.239 -9.987 0 0 Z M-49.477 22.418 C-54.109 28.087 -55.664 33.479 -55.664 40.73 C-39.494 40.73 -23.324 40.73 -6.664 40.73 C-7.727 30.099 -8.835 24.56 -16.785 17.957 C-27.52 10.95 -40.98 13.586 -49.477 22.418 Z " fill="#000000" transform="translate(553.6640625,50.26953125)"/>
<path d="M0 0 C0.697 0.49 1.395 0.98 2.113 1.484 C13.107 10.109 19.305 24.363 21 38 C22.172 59.288 21.03 78.363 6.75 95.312 C-0.978 103.481 -12.84 110.29 -24.283 111.177 C-46.46 111.721 -46.46 111.721 -56 107 C-57.012 106.514 -58.024 106.028 -59.066 105.527 C-72.673 98.324 -79.83 87.173 -85.098 73.059 C-90.276 54.969 -88.625 31.867 -79.465 15.301 C-71.271 2.431 -60.565 -5.593 -45.738 -9.613 C-29.208 -11.948 -13.797 -9.784 0 0 Z M-50.883 22.16 C-57.117 31.18 -58.18 39.579 -58.188 50.312 C-58.2 51.212 -58.212 52.111 -58.225 53.037 C-58.247 63.53 -56.234 71.436 -50 80 C-44.994 84.884 -40.168 86.307 -33.25 86.438 C-25.563 86.301 -20.729 84.631 -15.227 79.273 C-8.333 71.102 -7.501 60.731 -7.625 50.438 C-7.613 49.474 -7.602 48.51 -7.59 47.518 C-7.631 37.349 -9.909 27.616 -17 20 C-22.824 15.556 -28.782 14.164 -36.039 14.527 C-42.023 15.483 -46.856 17.541 -50.883 22.16 Z " fill="#000000" transform="translate(211,52)"/>
<path d="M0 0 C11.299 9.268 15.324 18.967 16.812 33.312 C17.143 39.479 17.071 45.656 17.043 51.828 C17.042 53.578 17.041 55.329 17.042 57.079 C17.04 60.716 17.032 64.353 17.018 67.991 C17.001 72.661 16.998 77.332 16.998 82.003 C16.998 85.602 16.993 89.202 16.985 92.801 C16.982 94.526 16.98 96.25 16.979 97.974 C16.977 100.367 16.968 102.76 16.958 105.153 C16.958 105.868 16.959 106.583 16.959 107.319 C16.927 112.198 16.927 112.198 15.812 113.312 C13.74 113.4 11.664 113.419 9.59 113.41 C8.96 113.409 8.96 113.409 5.771 113.4 C4.431 113.392 3.09 113.384 1.75 113.375 C0.406 113.37 -0.939 113.365 -2.283 113.361 C-5.585 113.349 -8.886 113.333 -12.188 113.312 C-12.193 112.353 -12.199 111.394 -12.205 110.405 C-12.263 101.342 -12.335 92.28 -12.423 83.217 C-12.468 78.559 -12.507 73.9 -12.534 69.241 C-12.56 64.741 -12.6 60.242 -12.651 55.742 C-12.667 54.029 -12.679 52.316 -12.685 50.604 C-12.695 48.196 -12.723 45.789 -12.755 43.381 C-12.754 42.68 -12.752 41.98 -12.751 41.258 C-12.865 35.189 -14.277 29.816 -18 24.938 C-22.833 21.347 -28.284 20.474 -34.188 21.312 C-40.357 22.967 -44.412 25.733 -47.973 31.039 C-53.679 41.717 -53.354 53.88 -53.504 65.656 C-53.525 67.035 -53.546 68.413 -53.567 69.792 C-53.622 73.396 -53.671 76.999 -53.72 80.603 C-53.77 84.29 -53.826 87.977 -53.881 91.664 C-53.988 98.88 -54.088 106.096 -54.188 113.312 C-63.428 113.312 -72.668 113.312 -82.188 113.312 C-82.188 75.032 -82.188 36.752 -82.188 -2.688 C-74.268 -2.688 -66.347 -2.688 -58.188 -2.688 C-57.528 1.273 -56.867 5.233 -56.188 9.312 C-55.362 8.261 -54.538 7.209 -53.688 6.125 C-41.296 -8.207 -15.484 -10.783 0 0 Z " fill="#000000" transform="translate(853.1875,47.6875)"/>
<path d="M0 0 C9.24 0 18.48 0 28 0 C28.02 2.2 28.04 4.4 28.06 6.666 C28.127 13.954 28.205 21.243 28.288 28.531 C28.337 32.947 28.384 37.364 28.422 41.78 C28.459 46.047 28.505 50.313 28.558 54.58 C28.577 56.203 28.592 57.826 28.603 59.45 C28.62 61.733 28.649 64.016 28.681 66.299 C28.694 67.596 28.708 68.893 28.722 70.229 C29.215 76.913 30.525 82.799 35 88 C40.729 91.508 46.387 91.73 53 91 C58.407 89.098 62.403 85.948 65.164 80.852 C68.087 74.522 69.116 69.093 69.205 62.098 C69.215 61.425 69.225 60.751 69.235 60.057 C69.267 57.844 69.292 55.631 69.316 53.418 C69.337 51.878 69.358 50.338 69.379 48.798 C69.434 44.756 69.484 40.713 69.532 36.671 C69.583 32.542 69.638 28.412 69.693 24.283 C69.801 16.189 69.902 8.094 70 0 C79.57 0 89.14 0 99 0 C99.023 14.977 99.041 29.954 99.052 44.931 C99.057 51.884 99.064 58.838 99.075 65.791 C99.086 72.496 99.092 79.2 99.095 85.904 C99.097 88.468 99.1 91.033 99.106 93.597 C99.113 97.174 99.114 100.752 99.114 104.33 C99.117 105.402 99.121 106.473 99.124 107.578 C99.123 108.547 99.122 109.516 99.12 110.514 C99.121 111.361 99.122 112.208 99.123 113.081 C99 115 99 115 98 116 C96.292 116.087 94.581 116.107 92.871 116.098 C92.354 116.096 92.354 116.096 89.736 116.088 C88.648 116.08 87.559 116.071 86.438 116.062 C85.891 116.06 85.891 116.06 83.127 116.049 C80.418 116.037 77.709 116.019 75 116 C74.01 112.04 73.02 108.08 72 104 C71.725 104.374 71.725 104.374 70.332 106.27 C67.954 109.054 65.774 110.745 62.688 112.688 C61.784 113.269 60.88 113.85 59.949 114.449 C50.13 119.613 37.26 119.439 26.531 117.312 C17.243 114.181 10.002 108.431 5 100 C1.424 92.414 -0.152 86.029 -0.114 77.651 C-0.114 76.812 -0.114 75.973 -0.114 75.108 C-0.113 72.337 -0.105 69.567 -0.098 66.797 C-0.096 64.874 -0.094 62.952 -0.093 61.03 C-0.09 55.973 -0.08 50.916 -0.069 45.859 C-0.058 40.698 -0.054 35.536 -0.049 30.375 C-0.038 20.25 -0.021 10.125 0 0 Z " fill="#000000" transform="translate(246,45)"/>
<path d="M0 0 C9.24 0 18.48 0 28 0 C28.015 2.291 28.029 4.581 28.044 6.941 C28.095 14.529 28.161 22.117 28.236 29.704 C28.28 34.302 28.32 38.9 28.346 43.499 C28.373 47.94 28.413 52.382 28.463 56.823 C28.48 58.513 28.491 60.204 28.498 61.894 C28.507 64.271 28.535 66.647 28.568 69.023 C28.567 69.369 28.567 69.369 28.563 71.118 C28.667 76.589 29.646 82.39 33.416 86.57 C38.664 91.101 43.237 91.404 49.918 91.348 C55.753 90.689 59.273 87.727 63.312 83.688 C69.787 73.376 69.175 61.787 69.316 50 C69.337 48.554 69.358 47.108 69.379 45.662 C69.434 41.881 69.484 38.1 69.532 34.319 C69.592 29.769 69.658 25.22 69.723 20.67 C69.82 13.78 69.909 6.89 70 0 C79.24 0 88.48 0 98 0 C98 38.28 98 76.56 98 116 C90.41 116 82.82 116 75 116 C73.717 111.509 72.665 107.547 72 103 C71.634 103.508 71.268 104.016 70.891 104.539 C65.354 111.578 58.425 115.192 50 118 C36.345 119.207 23.757 118.606 12.777 109.625 C5.907 103.343 1.476 96.306 0 87 C-0.088 84.14 -0.126 81.305 -0.114 78.446 C-0.114 77.597 -0.114 76.747 -0.114 75.872 C-0.113 73.075 -0.106 70.278 -0.098 67.48 C-0.096 65.537 -0.094 63.594 -0.093 61.65 C-0.09 56.542 -0.08 51.435 -0.069 46.327 C-0.058 41.112 -0.054 35.897 -0.049 30.682 C-0.038 20.454 -0.021 10.227 0 0 Z " fill="#000000" transform="translate(1116,45)"/>
<path d="M0 0 C9.57 0 19.14 0 29 0 C29.007 1.974 29.007 1.974 29.044 11.962 C29.094 24.986 29.161 38.01 29.236 51.034 C29.281 58.932 29.32 66.83 29.346 74.729 C29.369 81.613 29.403 88.497 29.449 95.38 C29.473 99.026 29.491 102.671 29.498 106.316 C29.505 110.385 29.535 114.452 29.568 118.521 C29.567 119.126 29.567 119.126 29.563 122.189 C29.57 122.743 29.57 122.743 29.601 125.546 C29.606 126.508 29.61 127.47 29.615 128.462 C30.07 131.462 30.891 132.84 33 135 C37.01 135.837 40.889 135.823 45 136 C45 143.92 45 151.84 45 160 C35.018 163.327 24.747 163.188 15 159 C9.343 155.954 4.5 151.762 2.081 145.695 C-0.083 138.112 -0.409 131.031 -0.341 123.175 C-0.34 121.824 -0.34 120.472 -0.342 119.121 C-0.343 115.487 -0.325 111.854 -0.304 108.22 C-0.285 104.41 -0.284 100.6 -0.28 96.789 C-0.271 89.59 -0.246 82.39 -0.216 75.19 C-0.182 66.987 -0.166 58.784 -0.151 50.581 C-0.12 33.72 -0.065 16.86 0 0 Z " fill="#000000" transform="translate(1060,0)"/>
</svg>
