<?xml version="1.0" encoding="UTF-8"?> <svg xmlns="http://www.w3.org/2000/svg" xmlns:xlink="http://www.w3.org/1999/xlink" x="0px" y="0px" viewBox="0 0 259.842 152.759" xml:space="preserve" preserveAspectRatio="none"> <path d="M48.965,33.917v25.398h9.297v33.367h-9.297v26.16h9.822v33.363H40.715V0.554h18.072v33.363H48.965z"></path> <path d="M94.803,152.206h-9.314l-8.832-58.386v58.386h-8.248V0.554h12.373c3.299,0,5.898,3.727,7.799,11.184 c2.148,8.089,3.225,19.907,3.225,35.448c0,10.873-0.6,20.16-1.801,27.867c-1.25,8.086-2.975,13.079-5.174,14.973L94.803,152.206z M76.656,68.611h0.826c3.797,0,5.699-6.324,5.699-18.964c0-12.633-1.902-18.954-5.699-18.954h-0.826V68.611z"></path> <path d="M113.818,152.206h-8.25V33.917h-6.824V0.554h21.896v33.363h-6.822V152.206z"></path> <path d="M137.256,152.206h-8.25V0.554h8.25V152.206z"></path> <path d="M225.725,118.842h9.898v33.363h-18.146V0.554h8.248V118.842z"></path> <path d="M250.018,33.917v25.398h9.299v33.367h-9.299v26.16h9.824v33.363H241.77V0.554h18.072v33.363H250.018z"></path> <path d="M172.912,148.672c-31,25.5-28.287-76.66-28.287-76.66s-1.713-91.839,28.287-68.089l1.076,26.747 c-13.576-15.747-19.982,4.922-20.772,41.504c-0.684,31.672,3.696,71.249,20.267,49.296L172.912,148.672z"></path> <path d="M16.689,93.318l7.688-92.764h8.918L19.723,152.205h-6.375L0,0.554h8.99L16.689,93.318z"></path> <path d="M189.004,125.854l-2.125,26.352h-8.801L190.301,0.554h9l11.922,151.652h-8.869l-2.07-26.352H189.004z M194.801,47.375 h-0.076l-3.449,48.339h6.867L194.801,47.375z"></path> </svg> 